<svg width="76" height="76" viewBox="0 0 76 76" fill="none" xmlns="http://www.w3.org/2000/svg">
<g id="Frame 2306">
<g id="Clip path group">
<mask id="mask0_6041_3313" style="mask-type:luminance" maskUnits="userSpaceOnUse" x="0" y="0" width="76" height="76">
<g id="clippath">
<path id="Vector" d="M1 75V1H75V75H1Z" fill="white" stroke="white" stroke-width="2"/>
</g>
</mask>
<g mask="url(#mask0_6041_3313)">
<g id="Group">
<path id="Vector_2" d="M26.125 65.0156V74.8125" stroke="#F26532" stroke-width="2" stroke-linecap="round" stroke-linejoin="round"/>
<path id="Vector_3" d="M53.4375 65.9062C53.4375 53.2712 63.8282 49.2456 65.3125 32.0625C66.5921 17.2395 57.2969 3.5625 36.8125 3.5625C21.0782 3.5625 13.5524 14.25 13.5524 25.5312V32.0625L8.26503 42.6372C7.29425 44.5758 8.268 46.9241 10.3253 47.6098L13.5524 48.6845C13.5524 48.6845 14.2114 55.5958 15.8086 60.9098C16.5805 63.4808 19.1663 65.0602 21.8114 64.6089L33.4163 62.6377" stroke="#F26532" stroke-width="2" stroke-linecap="round" stroke-linejoin="round"/>
<path id="Vector_4" d="M53.4375 74.8125V65.9062" stroke="#F26532" stroke-width="2" stroke-linecap="round" stroke-linejoin="round"/>
<path id="Vector_5" d="M40.375 20.1875C35.1292 20.1875 30.875 24.4417 30.875 29.6875C30.875 36.5156 35.625 36.5156 35.625 42.75H40.375" stroke="#F26532" stroke-width="2" stroke-linecap="round" stroke-linejoin="round"/>
<path id="Vector_6" d="M40.375 20.1875C45.6208 20.1875 49.875 24.4417 49.875 29.6875C49.875 36.5156 45.125 36.5156 45.125 42.75H40.375" stroke="#F26532" stroke-width="2" stroke-linecap="round" stroke-linejoin="round"/>
<path id="Vector_7" d="M45.125 47.5H35.625" stroke="#F26532" stroke-width="2" stroke-linecap="round" stroke-linejoin="round"/>
<path id="Vector_8" d="M40.375 13.0625V15.4375" stroke="#F26532" stroke-width="2" stroke-linecap="round" stroke-linejoin="round"/>
<path id="Vector_9" d="M32.0625 15.2891L33.25 17.3464" stroke="#F26532" stroke-width="2" stroke-linecap="round" stroke-linejoin="round"/>
<path id="Vector_10" d="M25.9766 21.375L28.0339 22.5625" stroke="#F26532" stroke-width="2" stroke-linecap="round" stroke-linejoin="round"/>
<path id="Vector_11" d="M23.75 29.6875H26.125" stroke="#F26532" stroke-width="2" stroke-linecap="round" stroke-linejoin="round"/>
<path id="Vector_12" d="M25.9766 38L28.0339 36.8125" stroke="#F26532" stroke-width="2" stroke-linecap="round" stroke-linejoin="round"/>
<path id="Vector_13" d="M54.7734 38L52.7161 36.8125" stroke="#F26532" stroke-width="2" stroke-linecap="round" stroke-linejoin="round"/>
<path id="Vector_14" d="M57 29.6875H54.625" stroke="#F26532" stroke-width="2" stroke-linecap="round" stroke-linejoin="round"/>
<path id="Vector_15" d="M54.7734 21.375L52.7161 22.5625" stroke="#F26532" stroke-width="2" stroke-linecap="round" stroke-linejoin="round"/>
<path id="Vector_16" d="M48.6875 15.2891L47.5 17.3464" stroke="#F26532" stroke-width="2" stroke-linecap="round" stroke-linejoin="round"/>
<path id="Vector_17" d="M40.3661 56.7536V74.863" stroke="#F26532" stroke-width="2" stroke-linecap="round" stroke-linejoin="round"/>
<path id="Vector_18" d="M36.7056 52.25H43.8306" stroke="#F26532" stroke-width="2" stroke-linecap="round" stroke-linejoin="round"/>
</g>
</g>
</g>
</g>
</svg>
