<svg width="167" height="31" viewBox="0 0 167 31" fill="none" xmlns="http://www.w3.org/2000/svg">
<g id="_?&#235;&#141;&#137;&#236;&#148;&#160;??1" clip-path="url(#clip0_26_144)">
<g id="Group">
<g id="Group_2">
<path id="Vector" d="M51.6745 28.8531H52.6699C55.0069 28.8531 57.9499 28.5646 59.6089 27.8866V23.0971C57.921 23.7174 55.3243 24.0348 53.1604 24.0348H51.6745V3.04473H46.3224V28.8531H51.6745Z" fill="white"/>
<path id="Vector_2" d="M68.2646 2.46768V12.6381H65.9708V11.787V2.59752H60.9072V29.661H65.9708V20.3561V17.8315H68.2646V30.1515H73.3859V2.46768H68.2646Z" fill="white"/>
</g>
<path id="Vector_3" d="M99.4828 23.0105H104.864V2.46768H99.4828V5.22308H96.9871V9.75289H99.4828V11.8303H96.9871V16.3745H99.4828V23.0105Z" fill="white"/>
<path id="Vector_4" d="M85.677 25.2755V21.0053H80.1085V30.1515H85.1432H85.677H105.253V25.2755H85.677Z" fill="white"/>
<path id="Vector_5" d="M93.6546 14.7155V7.28602H95.7897V2.78506H78.3485V7.28602H80.4259V14.8742H78.1609V19.3463H89.4999C92.1255 19.3463 94.7799 19.0866 96.2081 18.625V14.2539C95.5301 14.4414 94.6501 14.6145 93.6402 14.7011L93.6546 14.7155ZM88.4612 14.8742H85.6049V7.28602H88.4612V14.8742Z" fill="white"/>
<path id="Vector_6" d="M126.373 7.58897C126.474 7.35815 126.561 7.17061 126.633 6.91094H135.938V2.75621H111.11V6.91094H120.516C118.799 8.36798 114.645 9.2047 110.793 9.27683V13.5181C115.395 13.446 119.737 12.5804 122.781 10.9214L135.462 13.648L136.63 9.56536L126.388 7.58897H126.373Z" fill="white"/>
<path id="Vector_7" d="M109.509 18.6971H120.79V19.9955C114.832 20.3128 110.865 21.8709 110.865 25.3476C110.865 29.3292 116.044 30.7574 123.502 30.7574C130.961 30.7574 136.14 29.3292 136.14 25.3476C136.14 21.8853 132.187 20.3273 126.214 19.9955V18.6971H137.496V14.4847H109.495V18.6971M130.297 25.3476C130.297 26.3574 127.513 26.6748 123.488 26.6748C119.463 26.6748 116.679 26.3574 116.679 25.3476C116.679 24.3377 119.463 24.0204 123.488 24.0204C127.513 24.0204 130.297 24.381 130.297 25.3476Z" fill="white"/>
<path id="Vector_8" d="M159.25 15.8552H164.92V2.75621H140.092V7.84864H159.25V15.8552Z" fill="white"/>
<path id="Vector_9" d="M138.549 17.4997V22.5922L149.527 22.621V30.7574H155.197V22.621L166.55 22.5922V17.4997H138.549Z" fill="white"/>
</g>
<g id="Group_3">
<path id="Vector_10" d="M6.18878 1.86178C4.78945 1.86178 3.64978 3.00145 3.64978 4.40079C3.64978 5.80013 4.78945 6.93979 6.18878 6.93979C7.58812 6.93979 8.72779 5.80013 8.72779 4.40079C8.72779 3.00145 7.58812 1.86178 6.18878 1.86178ZM6.18878 5.38177C5.65502 5.38177 5.22223 4.94898 5.22223 4.41521C5.22223 3.88145 5.65502 3.44866 6.18878 3.44866C6.72255 3.44866 7.15534 3.88145 7.15534 4.41521C7.15534 4.94898 6.72255 5.38177 6.18878 5.38177Z" fill="white"/>
<path id="Vector_11" d="M24.236 3.0303C23.8032 3.0303 23.4425 3.37653 23.4425 3.82374V6.68012H21.7114C21.2786 6.68012 20.918 7.02635 20.918 7.47356C20.918 7.92077 21.2642 8.267 21.7114 8.267H23.4425V12.4073C23.4425 12.8401 23.7888 13.2007 24.236 13.2007C24.6832 13.2007 25.0294 12.8545 25.0294 12.4073V3.82374C25.0294 3.39096 24.6832 3.0303 24.236 3.0303Z" fill="white"/>
<path id="Vector_12" d="M10.4878 4.83357H12.2189V8.09389C12.2189 8.52667 12.5651 8.88733 13.0124 8.88733C13.4596 8.88733 13.8058 8.5411 13.8058 8.09389V1.12605C13.8058 0.693265 13.4596 0.332611 13.0124 0.332611C12.5651 0.332611 12.2189 0.678839 12.2189 1.12605V3.26112H10.4878C10.055 3.26112 9.69434 3.60735 9.69434 4.05456C9.69434 4.50177 10.0406 4.848 10.4878 4.848V4.83357Z" fill="white"/>
<path id="Vector_13" d="M27.1068 3.0303C26.674 3.0303 26.3134 3.37653 26.3134 3.82374V12.3929C26.3134 12.8257 26.6596 13.1863 27.1068 13.1863C27.554 13.1863 27.9002 12.8401 27.9002 12.3929V3.82374C27.9002 3.39096 27.554 3.0303 27.1068 3.0303Z" fill="white"/>
<path id="Vector_14" d="M35.7624 9.76732H31.2758V4.60276C31.2758 4.16997 30.9296 3.80932 30.4824 3.80932C30.0352 3.80932 29.689 4.15554 29.689 4.60276V10.5608C29.689 10.9935 30.0352 11.3542 30.4824 11.3542H35.7624C36.1952 11.3542 36.5558 11.008 36.5558 10.5608C36.5558 10.1136 36.2096 9.76732 35.7624 9.76732Z" fill="white"/>
<path id="Vector_15" d="M13.1855 12.0178H9.18942V8.94503C9.18942 8.51224 8.84319 8.15159 8.39598 8.15159C7.94877 8.15159 7.60254 8.49782 7.60254 8.94503V12.8112C7.60254 13.244 7.94877 13.6047 8.39598 13.6047H13.1855C13.6182 13.6047 13.9789 13.2584 13.9789 12.8112C13.9789 12.364 13.6327 12.0178 13.1855 12.0178Z" fill="white"/>
<path id="Vector_16" d="M19.2013 7.80536V5.38177H20.8891C21.3219 5.38177 21.6826 5.03554 21.6826 4.58833C21.6826 4.14112 21.3363 3.79489 20.8891 3.79489H15.9265C15.4937 3.79489 15.1331 4.14112 15.1331 4.58833C15.1331 5.03554 15.4793 5.38177 15.9265 5.38177H17.6144V7.79094L15.2341 10.4454C14.9455 10.7627 14.9744 11.2676 15.2918 11.5562C15.436 11.686 15.638 11.7581 15.8255 11.7581C16.0419 11.7581 16.2583 11.6716 16.417 11.4985L18.4078 9.29126L20.2976 11.484C20.4563 11.6716 20.6727 11.7581 20.8891 11.7581C21.0767 11.7581 21.2498 11.7004 21.4085 11.5706C21.7403 11.2821 21.7691 10.7916 21.495 10.4598L19.2013 7.80536Z" fill="white"/>
<path id="Vector_17" d="M38.5323 3.01588C38.9651 3.01588 39.3257 3.37653 39.3257 3.80932V6.6657H40.7683C41.2011 6.6657 41.5618 7.02635 41.5618 7.45913C41.5618 7.89192 41.2011 8.25257 40.7683 8.25257H39.3257V12.4073C39.3257 12.8401 38.9651 13.2007 38.5323 13.2007C38.0995 13.2007 37.7388 12.8401 37.7388 12.4073V3.80932C37.7388 3.37653 38.0995 3.01588 38.5323 3.01588Z" fill="white"/>
<path id="Vector_18" d="M35.9356 21.5679C35.9356 20.1686 34.7959 19.0289 33.3965 19.0289C31.9972 19.0289 30.8575 20.1686 30.8575 21.5679C30.8575 22.9673 31.9972 24.1069 33.3965 24.1069C34.7959 24.1069 35.9356 22.9673 35.9356 21.5679ZM32.4156 21.5679C32.4156 21.0342 32.8484 20.6014 33.3821 20.6014C33.9159 20.6014 34.3487 21.0342 34.3487 21.5679C34.3487 22.1017 33.9159 22.5345 33.3821 22.5345C32.8484 22.5345 32.4156 22.1017 32.4156 21.5679Z" fill="white"/>
<path id="Vector_19" d="M23.8609 21.2794H27.9002C28.333 21.2794 28.6936 20.9332 28.6936 20.486C28.6936 20.0387 28.3474 19.6925 27.9002 19.6925H24.6543V18.0335H27.9002C28.333 18.0335 28.6936 17.6873 28.6936 17.2401C28.6936 16.7929 28.3474 16.4466 27.9002 16.4466H23.8609C23.4281 16.4466 23.0674 16.7929 23.0674 17.2401V20.4715C23.0674 20.9043 23.4137 21.265 23.8609 21.265V21.2794Z" fill="white"/>
<path id="Vector_20" d="M28.7225 28.5646H24.7265V25.4918C24.7265 25.0591 24.3802 24.6984 23.933 24.6984C23.4858 24.6984 23.1396 25.0446 23.1396 25.4918V29.3581C23.1396 29.7908 23.4858 30.1515 23.933 30.1515H28.7225C29.1553 30.1515 29.5159 29.8053 29.5159 29.3581C29.5159 28.9108 29.1697 28.5646 28.7225 28.5646Z" fill="white"/>
<path id="Vector_21" d="M16.2151 21.2794H20.2544C20.6872 21.2794 21.0478 20.9332 21.0478 20.486C21.0478 20.0387 20.7016 19.6925 20.2544 19.6925H17.0085V18.0335H20.2544C20.6872 18.0335 21.0478 17.6873 21.0478 17.2401C21.0478 16.7929 20.7016 16.4466 20.2544 16.4466H16.2151C15.7823 16.4466 15.4216 16.7929 15.4216 17.2401V20.4715C15.4216 20.9043 15.7679 21.265 16.2151 21.265V21.2794Z" fill="white"/>
<path id="Vector_22" d="M21.0622 28.5646H17.0661V25.4918C17.0661 25.0591 16.7199 24.6984 16.2727 24.6984C15.8255 24.6984 15.4792 25.0446 15.4792 25.4918V29.3581C15.4792 29.7908 15.8255 30.1515 16.2727 30.1515H21.0622C21.495 30.1515 21.8556 29.8053 21.8556 29.3581C21.8556 28.9108 21.5094 28.5646 21.0622 28.5646Z" fill="white"/>
<path id="Vector_23" d="M38.5323 28.5646H34.5362V25.4918C34.5362 25.0591 34.19 24.6984 33.7428 24.6984C33.2956 24.6984 32.9493 25.0446 32.9493 25.4918V29.3581C32.9493 29.7908 33.2956 30.1515 33.7428 30.1515H38.5323C38.965 30.1515 39.3257 29.8053 39.3257 29.3581C39.3257 28.9108 38.9795 28.5646 38.5323 28.5646Z" fill="white"/>
<path id="Vector_24" d="M35.95 18.4807C36.3828 18.4807 36.7434 18.1345 36.7434 17.6873C36.7434 17.2401 36.3972 16.8938 35.95 16.8938H34.1756V15.7109C34.1756 15.2781 33.8293 14.9175 33.3821 14.9175C32.9349 14.9175 32.5887 15.2637 32.5887 15.7109V16.8938H30.8864C30.4536 16.8938 30.093 17.2401 30.093 17.6873C30.093 18.1345 30.4392 18.4807 30.8864 18.4807H35.9356H35.95Z" fill="white"/>
<path id="Vector_25" d="M28.8956 22.4768H21.7546C21.4372 22.4768 18.5809 22.4768 18.2635 22.4768C3.56322 22.4912 1.47142 15.0473 1.39929 14.9463C1.1829 14.5712 0.721262 14.4558 0.360608 14.6866C-4.58527e-05 14.9175 -0.115455 15.3935 0.100937 15.7686C0.302904 16.1148 2.61109 24.0637 18.2058 24.0637C18.5376 24.0637 21.4084 24.0637 21.7546 24.0637H28.8811C29.2995 24.0637 29.6457 23.703 29.6457 23.2702C29.6457 22.8374 29.2995 22.4768 28.8811 22.4768H28.8956Z" fill="white"/>
<path id="Vector_26" d="M40.7683 19.6781H39.3257V17.0814C39.3257 16.6486 38.9795 16.2879 38.5323 16.2879C38.0851 16.2879 37.7388 16.6342 37.7388 17.0814V24.1069C37.7388 24.5397 38.0851 24.9004 38.5323 24.9004C38.9795 24.9004 39.3257 24.5541 39.3257 24.1069V21.2505H40.7683C41.2011 21.2505 41.5618 20.9043 41.5618 20.4571C41.5618 20.0099 41.2155 19.6637 40.7683 19.6637V19.6781Z" fill="white"/>
</g>
</g>
<defs>
<clipPath id="clip0_26_144">
<rect width="166.55" height="30.4248" fill="white" transform="translate(0 0.332611)"/>
</clipPath>
</defs>
</svg>
