<svg width="98" height="46" viewBox="0 0 98 46" fill="none" xmlns="http://www.w3.org/2000/svg">
<path d="M18.08 17.28C17.52 19.72 14.12 24.04 13.08 25.04C11.72 26.44 10.2 28.12 8.91997 29.16C7.91997 30.04 7.07997 30.8 5.83997 29.84C5.83997 29.84 4.75997 29.04 4.99997 28.4C5.23997 27.72 6.95997 26.72 7.55997 26.2C10.4 23.8 13.92 20.36 14.68 17C14.84 16.28 15.08 15.04 13.12 15C10.08 14.96 6.95997 16.68 5.47997 17.24C5.07997 17.4 3.87997 19.2 3.47997 19.36C2.83997 19.68 1.83997 19.52 1.07997 18.92L0.399971 18.2C0.0399707 17.6 -2.92882e-05 17.04 0.559971 16.6C2.11997 15.32 8.99997 12.04 13.6 12.4C15.64 12.56 17.12 13.96 17.76 15.36C18.04 15.92 18.24 16.56 18.08 17.28ZM26.24 23.96C26.24 21.2 25.92 19.88 26.12 16.84C26.24 15.92 24.92 9.07999 24.84 7.39999C24.84 7.39999 24.56 6.19999 24.56 5.79999C24.56 4.91999 25.28 4.67999 26.16 4.95999C28.12 5.55999 27.64 6.19999 27.92 7.39999C28.84 11.28 29.12 13.44 29.12 17.52C29.12 18.16 29.32 20.76 28.72 22.68C28.56 23.24 28.08 23.96 28.08 23.96C27.76 24.28 26.24 24.64 26.24 23.96ZM26.2 26.64C26.76 26.4 28.2 26.72 28.56 27.24C28.56 27.24 29.76 29 29.76 29.64C29.76 30.2 29.12 32.56 29.36 33.12C29.6 33.68 30.08 33.6 30.76 33.36L32.4 32.24C33.44 31.6 33.64 31.8 33.88 32C34.56 32.56 33.88 33.72 33.36 34.4C33 34.84 31.48 36.6 30.96 36.76C30.36 36.92 29.24 37.04 28.68 36.88C27.4 36.52 26.08 34.28 25.96 33.36C25.92 32.88 25.92 32.2 26.52 30.68C26.68 30.28 26.04 29.68 25.8 29.64C24.96 29.44 23.12 30.4 22.92 29.92C22.56 28.96 22 28.88 22.8 28.36C23.76 27.68 26.2 26.64 26.2 26.64ZM14.64 31.2C14.24 31.04 14.56 27.68 15.52 27.96C16.6 28.28 17.76 29.08 18.72 30.36C19.96 32.08 21.56 34.96 22.4 35.48C22.96 35.8 23 37.12 22.76 38.44C22.68 38.84 21.16 38.4 21 38.24C20.44 37.68 19.4 36.32 18.6 35.28C18.12 34.76 16.12 31.92 14.64 31.2ZM62.7237 42.84C60.6837 45.96 59.2437 45.2 56.4437 43.68C55.1637 43 54.5637 41.12 54.5637 38.36C54.5637 36.48 55.8037 35.68 58.6037 32.44C58.6037 32.44 59.2437 31.16 59.4437 30.6C59.9637 29.32 61.2437 27.4 60.0037 25.92C59.7637 25.6 59.5637 25.44 58.6837 25.68C57.9637 25.88 55.3637 27.48 54.7637 27.48C54.0437 27.48 54.0037 27.52 53.5637 26.88C53.2437 26.4 52.8037 25.76 53.4037 24.2C53.6837 23.52 54.9637 19.8 55.3637 18.84C55.7237 18.08 56.0437 16.04 56.2437 15.24C56.9237 12.16 57.4837 9.15999 57.6837 5.91999C57.7237 4.99999 57.8037 2.23999 57.6837 1.03999C57.6037 0.47999 57.6837 0.239988 57.9637 0.199988C59.8037 -1.14441e-05 60.0037 0.239988 60.0837 0.759988C60.7637 3.99999 60.7237 6.47999 60.4037 9.31999C60.1637 11.4 59.5637 13.32 59.0437 15.24C58.8837 15.88 57.2437 19.32 56.9237 19.92C55.9637 21.88 56.2837 22.36 57.1637 22.52C57.9237 22.52 60.3237 22.96 60.9237 23.24C61.4037 23.44 61.8837 23.96 62.1237 24.44C62.4837 25.12 63.4037 27.48 63.4037 28.16C63.3637 28.44 63.8037 28.16 63.9637 28.16C63.9637 28.16 66.4037 26.8 68.0837 25.44C69.5637 24.32 69.4037 24.48 70.7237 23.56C71.8437 22.76 72.6037 23.08 72.8437 23.32C73.1637 23.56 72.0437 25.68 71.8837 25.84C70.6037 27.36 70.2837 26.8 68.9637 28.12C67.7637 29.28 67.0837 29.36 65.8037 30.6C65.1237 31.2 62.9637 32.6 62.6837 33.52C62.5237 34 62.7237 35.08 62.7237 35.08C63.2037 35.84 63.9637 37.28 63.9637 37.92C63.9637 39.56 63.7237 41.32 62.7237 42.84ZM59.6837 42.08C61.2837 40.96 61.3637 37.96 59.8837 35.4C58.4037 36.52 57.3237 37.76 57.3237 39.28C57.3237 40.48 58.7637 42.76 59.6837 42.08ZM43.0037 23.28C43.2037 22.36 44.0437 20.96 44.4037 20.04C45.3237 17.88 44.9637 14.84 44.3237 14.16C43.3637 13.2 42.2837 12.96 41.2837 13.2C39.8437 13.48 37.5237 14.92 35.8437 15.64C35.4837 15.8 34.2037 15.04 34.0437 14.96C33.5237 14.68 33.9237 13.52 34.0437 13.4C34.8037 12.64 40.2437 10.36 41.2837 10.32C44.2837 10.16 45.3237 10.92 47.0837 12.92C48.4837 14.44 47.9637 17.2 47.4037 19.04C47.0037 20.2 45.9637 22.12 45.2437 23.8C44.8037 24.68 44.5637 25.08 43.8437 25.08C43.5237 25.08 42.7237 25 43.0037 23.28ZM76.7522 20.4L74.2322 23.36C74.2322 23.36 72.3522 25.92 71.7122 25.92C71.3522 25.92 71.3122 25.84 70.7122 25.84L70.1122 25.16C69.7922 24.56 70.7522 23.28 70.9122 23.28C72.5122 20.52 75.8722 15.72 77.5522 12.64C78.3122 11.24 79.5922 8.71999 80.5122 7.83999C80.7922 7.55999 81.9522 7.11999 82.5122 7.59999C83.2322 8.67999 83.5522 9.75999 83.1522 10.12L80.9922 12.56L77.7922 17.8C78.8722 17.6 79.9922 17.76 80.8722 18.16C82.1522 18.68 83.8722 19.8 84.3922 21.76L85.9922 19.48C89.1922 15.12 91.1922 11.04 93.9522 6.95999C94.4722 6.15999 96.5122 6.51999 96.7922 7.11999C97.2722 7.71999 97.1522 8.07999 97.1522 9.47999C97.1522 10.12 97.3522 12 97.3522 12C97.7922 13.96 97.3522 18.36 97.3522 19.56C97.3522 21.24 96.6722 23.68 95.4322 24.6H94.6322C94.3122 24.6 94.5522 22.24 94.5522 21.4V19.56C94.5522 18.88 94.6322 13.28 94.6322 12.68C94.5122 11.64 94.1122 11.56 93.3122 12.68C92.1122 14.92 87.7922 19.96 85.4722 23C84.9122 23.76 84.3122 24.68 84.1522 25.16C83.7122 26.56 83.4722 27.08 83.4722 27.08C82.7122 27.52 81.1122 27.44 80.9522 27.04L81.0322 25.44C81.2322 23.64 81.4722 21.84 80.7522 21.16C79.8322 20.36 77.6322 20.28 76.7522 20.4ZM88.1122 32.88C88.1122 32.44 88.8322 32.64 88.8322 32.64C89.9522 33.52 92.5522 33.12 93.1522 32.88C93.4322 32.76 94.5522 31.8 94.5522 30.88C94.5522 30.44 93.7122 27.88 90.7922 28.84C89.1922 29.36 88.3522 31.48 88.1122 30.2C88.0722 30 87.7922 28.52 88.3122 27.88C89.2722 26.64 90.0722 26 91.4322 26H92.7522C96.6722 28.36 97.4722 28.8 97.7122 30.88C97.7122 31.28 97.5522 32.68 97.5522 32.72C97.2722 33.88 95.1922 35.64 93.3122 35.88C91.0722 36.12 88.1522 36.04 88.1122 32.88Z" fill="black"/>
</svg>
