<svg width="16" height="17" viewBox="0 0 16 17" fill="none" xmlns="http://www.w3.org/2000/svg">
<g clip-path="url(#clip0_20_253)">
<path fill-rule="evenodd" clip-rule="evenodd" d="M8.00002 11.6321C7.78785 11.6321 7.58436 11.5478 7.43434 11.3977C7.28431 11.2477 7.20002 11.0442 7.20002 10.8321C7.20002 10.6199 7.28431 10.4164 7.43434 10.2664C7.58436 10.1163 7.78785 10.0321 8.00002 10.0321C8.21219 10.0321 8.41568 10.1163 8.56571 10.2664C8.71574 10.4164 8.80002 10.6199 8.80002 10.8321C8.80002 11.0442 8.71574 11.2477 8.56571 11.3977C8.41568 11.5478 8.21219 11.6321 8.00002 11.6321ZM7.33335 5.07539C7.33335 4.89857 7.40359 4.72901 7.52862 4.60398C7.65364 4.47896 7.82321 4.40872 8.00002 4.40872C8.17683 4.40872 8.3464 4.47896 8.47143 4.60398C8.59645 4.72901 8.66669 4.89857 8.66669 5.07539V8.40872C8.66669 8.58553 8.59645 8.7551 8.47143 8.88012C8.3464 9.00515 8.17683 9.07539 8.00002 9.07539C7.82321 9.07539 7.65364 9.00515 7.52862 8.88012C7.40359 8.7551 7.33335 8.58553 7.33335 8.40872V5.07539ZM8.00002 0.886719C3.95002 0.886719 0.666687 4.17005 0.666687 8.22005C0.666687 12.2707 3.95002 15.5534 8.00002 15.5534C12.05 15.5534 15.3334 12.2707 15.3334 8.22005C15.3334 4.17005 12.05 0.886719 8.00002 0.886719Z" fill="#555555"/>
</g>
<defs>
<clipPath id="clip0_20_253">
<rect width="16" height="16" fill="white" transform="translate(0 0.219971)"/>
</clipPath>
</defs>
</svg>
