<svg width="120" height="143" viewBox="0 0 120 143" fill="none" xmlns="http://www.w3.org/2000/svg">
<g clip-path="url(#clip0_5798_24918)">
<path d="M90.4093 0C92.6846 35.6808 92.6966 71.4219 91.8178 107.151C91.4927 119.057 91.0232 130.962 90.1324 142.868H89.0248C86.6171 107.199 86.4606 71.446 87.207 35.717C87.4839 23.8113 87.9173 11.9057 88.748 0H90.4093Z" fill="white"/>
<path d="M78.1784 9.96558C76.7337 15.6533 74.3501 27.9325 74.3501 46.8876C74.3501 65.8427 76.7458 78.1219 78.1784 83.8096H79.2377V9.96558H78.1784Z" fill="white"/>
<path d="M63.0458 67.0476C57.2312 53.8887 57.3034 38.0908 63.0458 24.9319L63.7681 25.197C60.6261 35.271 59.9158 46.0439 61.4327 56.4674C61.9744 59.9379 62.7449 63.3722 63.7681 66.7704L63.0458 67.0355V67.0476Z" fill="white"/>
<path d="M69.8955 74.5791C63.5994 56.6603 63.6957 35.3434 69.8955 17.4126L71.0873 17.738C68.2703 31.6922 67.6684 46.0079 69.0047 60.1549C69.4742 64.8665 70.1965 69.5541 71.0873 74.2416L69.9076 74.567L69.8955 74.5791Z" fill="white"/>
<path d="M104.362 95.9804C104.362 77.0373 101.967 64.7461 100.534 59.0583H99.4746V132.902H100.534C101.979 127.215 104.362 114.935 104.362 95.9804Z" fill="white"/>
<path d="M115.667 75.8081C121.481 88.967 121.409 104.765 115.667 117.924L114.944 117.659C118.086 107.585 118.797 96.8117 117.28 86.3882C116.738 82.9178 115.968 79.4834 114.944 76.0853L115.667 75.8202V75.8081Z" fill="white"/>
<path d="M108.817 68.2888C115.113 86.2076 115.017 107.524 108.817 125.455L107.625 125.13C110.442 111.176 111.044 96.86 109.708 82.713C109.238 78.0013 108.516 73.3138 107.625 68.6262L108.805 68.3009L108.817 68.2888Z" fill="white"/>
<path d="M24.2697 138.193L23.5835 137.012C23.9567 136.843 24.691 136.361 25.1846 135.795C25.943 134.915 26.2199 134.083 26.2199 132.878V130.42H27.5682V132.963C27.5682 133.384 27.5201 133.758 27.4479 134.12C28.0979 135.047 29.3499 136.156 30.2167 136.71L29.5787 137.879C28.7601 137.361 27.7247 136.397 26.9904 135.433C26.8339 135.734 26.6292 136.036 26.4005 136.349C25.7625 137.18 24.8114 137.891 24.2456 138.193H24.2697ZM31.5169 132.902V130.095H32.8532V140.06H31.5169V134.156H29.3861V132.89H31.5169V132.902Z" fill="white"/>
<path d="M38.957 135.903V135.108H34.7676V134.035H44.5429V135.108H40.3655V135.903H43.2427V138.518H37.4401V139.289H43.4594V140.313H36.1039V137.638H41.9064V136.903H36.0437V135.915H38.969L38.957 135.903ZM43.351 131.734C43.351 132.987 41.9907 133.601 39.6432 133.601C37.2957 133.601 35.9714 132.975 35.9714 131.734C35.9714 130.492 37.3077 129.83 39.6432 129.83C41.9787 129.83 43.351 130.48 43.351 131.734ZM37.3077 131.734C37.3077 132.288 38.018 132.553 39.6432 132.553C41.2684 132.553 42.0027 132.276 42.0027 131.734C42.0027 131.191 41.2443 130.866 39.6432 130.866C38.0421 130.866 37.3077 131.179 37.3077 131.734Z" fill="white"/>
<path d="M49.5505 130.432V131.77C49.5505 132.926 49.1292 133.83 48.13 134.481C47.4799 134.927 46.4687 135.228 45.8065 135.3L45.5898 134.107C46.0593 134.035 46.7817 133.842 47.2271 133.601C47.9855 133.179 48.2504 132.673 48.2504 131.902V131.589H45.939V130.42H49.5385L49.5505 130.432ZM54.5826 135.529V138.349H48.8643V139.265H54.8475V140.325H47.516V137.385H53.2463V136.554H47.4679V135.529H54.5947H54.5826ZM54.5947 130.083V134.939H53.3065V133.011H51.8619V134.927H50.5738V130.119H51.8619V131.854H53.3065V130.083H54.5947Z" fill="white"/>
<path d="M61.7937 130.601V134.77H58.2905V136.807H59.1693C59.9157 136.807 61.6974 136.734 62.7809 136.421L62.9253 137.602C61.7456 137.927 59.9037 138 59.085 138H56.9783V133.698H60.4935V131.734H56.8579V130.601H61.7696H61.7937ZM65.4173 130.095V140.06H64.081V134.589H62.3956V133.312H64.081V130.095H65.4173Z" fill="white"/>
<path d="M73.1944 130.601V134.77H69.3541V136.807H70.2931C71.0395 136.807 73.0018 136.698 73.9529 136.397L74.0973 137.566C73.0861 137.915 71.0275 137.988 70.2089 137.988H68.054V133.686H71.8822V131.722H67.9336V130.589H73.1944V130.601ZM76.3485 130.095V140.06H75.0122V130.095H76.3485Z" fill="white"/>
<path d="M47.9615 105.428C51.5972 105.428 54.5466 102.476 54.5466 98.8364C54.5466 95.1972 51.5972 92.2449 47.9615 92.2449C44.3259 92.2449 41.3765 95.1972 41.3765 98.8364C41.3765 102.476 44.3259 105.428 47.9615 105.428ZM43.7481 98.8364C43.7481 96.5107 45.6381 94.6188 47.9615 94.6188C50.285 94.6188 52.175 96.5107 52.175 98.8364C52.175 101.162 50.285 103.054 47.9615 103.054C45.6381 103.054 43.7481 101.162 43.7481 98.8364Z" fill="#EE3E79"/>
<path d="M40.4133 92.5461H31.9502V105.283H40.4133V103.138H34.3218V99.8727H39.3539V97.7398H34.3218V94.679H40.4133V92.5461Z" fill="white"/>
<path d="M67.2112 92.5461H64.8275V100.343C64.8275 101.909 63.5514 103.187 61.9864 103.187C60.4214 103.187 59.2176 101.981 59.1453 100.475V92.5461H56.7617V100.198C56.7617 103.078 59.0972 105.428 61.9744 105.428C64.8516 105.428 67.1269 103.15 67.1991 100.319V92.5461H67.2112Z" fill="white"/>
<path d="M78.07 103.138H72.3035V92.5461H69.9199V105.283H78.07V103.138Z" fill="white"/>
<path d="M25.0043 97.6676C24.0292 97.4748 22.3799 97.0168 22.2956 96.101C22.2595 95.7154 22.3919 95.3539 22.6808 95.0768C23.0902 94.667 23.7763 94.4501 24.5589 94.4742C25.7146 94.4983 26.6776 95.0045 27.424 96.0528L29.2298 95.1129C28.1463 93.1487 26.2081 92.269 24.5589 92.269C22.5243 92.269 21.4048 93.0523 20.8149 93.6669C20.1768 94.3417 19.8518 95.1973 19.8879 96.089C19.9601 98.0773 21.3446 99.1979 24.5227 99.8366C25.3414 100.017 27.2555 100.548 27.2555 101.656C27.2555 101.994 27.0508 102.403 26.7499 102.705C26.1239 103.307 25.0524 103.403 24.1857 103.295C23.355 103.199 21.6335 102.596 20.9112 101.138L19.3101 102.548C20.0805 104.042 21.9585 105.428 24.6913 105.452C26.3165 105.452 27.7852 104.922 28.7362 103.994C29.4345 103.319 29.8077 102.452 29.8077 101.572C29.8077 99.6077 28.1463 98.2701 24.9922 97.6917L25.0043 97.6676Z" fill="#45B97C"/>
<path d="M29.5428 109.995H27.1592V122.732H35.3093V120.587H29.5428V109.995Z" fill="#FDB933"/>
<path d="M39.354 109.995H36.9824V122.732H45.1205V120.587H39.354V109.995Z" fill="white"/>
<path d="M49.1776 117.321H54.1976V115.189H49.1776V112.14H55.2691V109.995H46.7939V122.732H55.2691V120.587H49.1776V117.321Z" fill="white"/>
<path d="M79.2617 109.995H76.7096L73.3388 115.779L69.956 109.995H67.4038L72.1349 118.093V122.732H74.5306V118.093L79.2617 109.995Z" fill="#27AAE1"/>
<path d="M13.1218 115.502H6.32006V117.647H10.5697C10.0038 119.31 8.43884 120.503 6.5849 120.503C4.26147 120.503 2.37142 118.611 2.37142 116.285C2.37142 113.959 4.26147 112.068 6.5849 112.068C8.17399 112.068 9.55842 112.947 10.2687 114.261L11.9902 112.537C10.7984 110.814 8.81203 109.694 6.57287 109.694C2.93723 109.694 -0.012207 112.646 -0.012207 116.285C-0.012207 119.924 2.93723 122.877 6.57287 122.877C10.2085 122.877 13.1579 119.924 13.1579 116.285C13.1579 116.02 13.1459 115.755 13.1098 115.502H13.1218Z" fill="white"/>
<path d="M64.8636 122.732H67.4157L64.695 117.478C66.0915 116.888 67.0666 115.502 67.0666 113.887C67.0666 111.742 65.321 109.995 63.1782 109.995H57.2432V122.732H59.6268V117.791H62.2993L64.8636 122.732ZM59.6268 112.14H62.9374C63.9005 112.14 64.683 112.923 64.683 113.887C64.683 114.851 63.9005 115.634 62.9374 115.634H59.6268V112.128V112.14Z" fill="white"/>
<path d="M25.702 122.732L21.1876 109.995H17.6844L13.1699 122.732H15.6739L19.442 112.104L23.198 122.732H25.702Z" fill="white"/>
</g>
<defs>
<clipPath id="clip0_5798_24918">
<rect width="120" height="142.868" fill="white"/>
</clipPath>
</defs>
</svg>
