<?xml version="1.0" encoding="utf-8"?>
<svg xmlns="http://www.w3.org/2000/svg" fill="none" height="100%" overflow="visible" preserveAspectRatio="none" style="display: block;" viewBox="0 0 14 16" width="100%">
<g id="calendar-day">
<path d="M4 0C4.55313 0 5 0.446875 5 1V2H9V1C9 0.446875 9.44687 0 10 0C10.5531 0 11 0.446875 11 1V2H12C13.1031 2 14 2.89688 14 4V13C14 14.1031 13.1031 15 12 15H2C0.896875 15 0 14.1031 0 13V4C0 2.89688 0.896875 2 2 2H3V1C3 0.446875 3.44687 0 4 0ZM4 8C3.44687 8 3 8.44687 3 9V11C3 11.5531 3.44687 12 4 12H6C6.55313 12 7 11.5531 7 11V9C7 8.44687 6.55313 8 6 8H4Z" fill="var(--fill-0, #344054)" id="Primary"/>
</g>
</svg>