<?xml version="1.0" encoding="utf-8"?>
<svg xmlns="http://www.w3.org/2000/svg" fill="none" height="100%" overflow="visible" preserveAspectRatio="none" style="display: block;" viewBox="0 0 18 25" width="100%">
<path d="M0.0046875 8.84063C0.0046875 3.95625 4.03594 0 9.00469 0C13.9734 0 18.0047 3.95625 18.0047 8.84063C18.0047 14.4328 12.3703 21.1359 10.0172 23.6906C9.46406 24.2906 8.54063 24.2906 7.9875 23.6906C5.63438 21.1359 0 14.4328 0 8.84063H0.0046875ZM9.00469 12C9.80034 12 10.5634 11.6839 11.126 11.1213C11.6886 10.5587 12.0047 9.79565 12.0047 9C12.0047 8.20435 11.6886 7.44129 11.126 6.87868C10.5634 6.31607 9.80034 6 9.00469 6C8.20904 6 7.44598 6.31607 6.88337 6.87868C6.32076 7.44129 6.00469 8.20435 6.00469 9C6.00469 9.79565 6.32076 10.5587 6.88337 11.1213C7.44598 11.6839 8.20904 12 9.00469 12Z" fill="var(--fill-0, #111111)" id="Primary"/>
</svg>