<?xml version="1.0" encoding="utf-8"?>
<svg xmlns="http://www.w3.org/2000/svg" fill="none" height="100%" overflow="visible" preserveAspectRatio="none" style="display: block;" viewBox="0 0 25 27" width="100%">
<g id="Group">
<path d="M14.8655 3.56722C14.9166 3.64674 14.9848 3.7149 14.9905 3.79443C15.0643 4.02732 15.2802 4.16933 15.3086 4.40222C15.3199 4.48174 15.4222 4.51582 15.4733 4.54991C15.5301 4.62375 15.4903 4.70895 15.6039 4.81688C15.6551 4.85096 15.6153 4.93616 15.6267 5.01569C15.6778 5.04977 15.7346 5.08385 15.7857 5.11793C16.2685 5.87341 16.314 6.74817 15.7573 7.56045C15.6664 7.65134 15.5812 7.7763 15.5471 7.90127C15.5017 7.94671 15.4051 7.99216 15.3597 8.0376C15.371 8.11712 15.4222 8.1512 15.479 8.22505C15.2347 8.28753 15.2063 8.49202 15.0245 8.62835C14.9734 8.62835 14.8769 8.63971 14.8257 8.64539C14.6894 8.78171 14.5474 8.83284 14.4054 8.92372C14.36 8.96916 14.3713 9.08845 14.377 9.12821C14.1441 9.30998 13.809 9.42359 13.4568 9.41223C13.4113 9.41223 13.3716 9.54287 13.3261 9.54287C13.0762 9.56559 12.7808 9.55423 12.5309 9.57695C12.4287 9.54855 12.3719 9.47471 12.2639 9.44063C12.1674 9.45199 12.0651 9.45767 11.9629 9.42927C11.8038 9.32134 11.5993 9.3043 11.4403 9.23614C11.338 9.20774 11.1506 9.3043 11.0427 9.23614C10.7075 8.94644 10.3781 8.65675 10.1963 8.35569C10.077 8.16824 9.86685 8.10576 9.79869 7.91263C9.78733 7.83311 9.82709 7.70814 9.72485 7.67974C9.52036 7.61726 9.60556 7.49229 9.5942 7.373C9.53172 7.2594 9.52036 7.17987 9.41243 7.07195C9.34995 6.95834 9.42947 6.78794 9.36699 6.63457C9.36699 6.59481 9.40675 6.54936 9.40107 6.5096C9.32723 6.27671 9.44651 6.02678 9.42379 5.82797C9.41243 5.70868 9.44083 5.54395 9.4806 5.42467C9.60556 5.17474 9.71917 4.87936 9.9407 4.61807C9.9407 4.57831 9.92934 4.49878 9.92366 4.45902C9.9691 4.41358 10.0202 4.4079 10.06 4.36246C10.1395 4.15797 10.219 3.98756 10.3497 3.81715C10.5258 3.6013 10.8041 3.41385 11.0313 3.19232C11.1676 3.06167 11.3551 2.95943 11.4801 2.74926C11.5255 2.70381 11.6845 2.77198 11.73 2.72653C11.8663 2.59589 12.0651 2.61293 12.2071 2.52204C12.3491 2.43116 12.3207 2.62997 12.4627 2.57885C12.5593 2.56749 12.6047 2.52772 12.7013 2.4766C12.8433 2.42548 13.008 2.52772 13.1614 2.55045C13.3091 2.53909 13.4625 2.56181 13.6215 2.66973C13.8374 2.81174 14.3316 2.76062 14.4111 3.03895C14.5304 3.2264 14.7462 3.36841 14.8655 3.55586V3.56722Z" fill="var(--fill-0, #C2002F)" id="Vector"/>
<path d="M23.2269 6.70273C23.2269 6.57777 23.2269 6.50392 23.1758 6.37328C23.1644 6.24831 23.261 6.11198 23.2155 5.94157C23.1871 5.89613 23.1246 5.84501 23.1303 5.80525C23.2155 5.54395 23.2212 5.30538 23.1985 5.02705C23.1758 4.94184 23.1474 4.8964 23.1189 4.85096C23.1246 4.8112 23.1417 4.73735 23.153 4.65783C23.1587 4.41926 23.0849 4.24317 23.011 4.02732C22.9883 3.94212 22.9258 3.89099 22.9145 3.76603C22.8861 3.72058 22.8236 3.66378 22.8293 3.62402C22.8917 3.27752 22.727 3.00487 22.6759 2.67541C22.5964 2.30051 22.2442 2.06194 22.1306 1.68136C22.1363 1.6416 22.2555 1.65864 22.2896 1.66432C22.568 1.92562 22.8804 2.23235 22.9542 2.60725C23.0053 2.7379 22.9826 2.8515 23.0394 2.94239C23.278 3.23208 23.3178 3.6013 23.3632 3.97052C23.3575 4.01028 23.4314 3.98756 23.4598 4.033C23.4541 4.07276 23.437 4.14661 23.4654 4.19205C23.6472 4.39086 23.5336 4.60671 23.5734 4.8112C23.5961 4.8964 23.6188 4.94184 23.6472 4.98729C23.6415 5.02705 23.5507 5.12929 23.5393 5.16338C23.687 5.3565 23.7495 5.60644 23.7097 5.83933C23.8801 5.91885 23.8006 6.14038 23.8403 6.30511C23.8687 6.35055 23.9028 6.35623 23.9369 6.36759C23.9824 6.29943 24.0335 6.23127 24.0505 6.15174C24.0732 5.83933 24.0846 5.56099 24.0278 5.2713C23.9824 5.14065 23.9653 5.01569 24.0562 4.91912C23.988 4.90208 23.9653 4.81688 23.9369 4.77144C23.8119 4.26589 23.7608 3.69786 23.6075 3.18096C23.6075 3.18096 23.6472 3.15256 23.6586 3.11279C23.6075 2.65837 23.261 2.23235 23.0962 1.77793C23.0678 1.6984 22.9372 1.59616 22.8747 1.51095C22.8747 1.51095 22.8747 1.47119 22.8861 1.43143C23.0621 1.45415 23.1985 1.62456 23.2894 1.75521C23.4768 2.0165 23.687 2.30619 23.7438 2.60157C23.8403 2.86286 23.988 3.13551 24.0448 3.39113C24.0846 3.56154 24.2039 3.66946 24.2891 3.81147C24.3345 3.94211 24.3118 4.05572 24.3232 4.18069C24.3743 4.47606 24.4595 4.7544 24.5163 5.04977C24.5845 5.26562 24.6185 5.50987 24.5447 5.69164C24.4481 6.02678 24.6697 6.396 24.7605 6.69705C24.8117 6.8277 24.7492 6.97539 24.6924 7.08331C24.6867 7.12307 24.7492 7.17419 24.7378 7.21396C24.6753 7.36164 24.7265 7.49229 24.6981 7.64566C24.6583 7.67406 24.7492 7.7763 24.6981 7.84447C24.6583 7.87855 24.6242 7.86719 24.5788 7.90127C24.522 8.0092 24.5731 8.13984 24.5504 8.25345C24.4368 8.4693 24.4936 8.75899 24.2834 8.91236C24.2039 8.93508 24.1982 8.97484 24.1584 9.00325C24.1925 9.00893 24.2209 9.05437 24.2493 9.10549C24.2096 9.13389 24.1698 9.12821 24.13 9.15661C24.1187 9.23046 24.2664 9.32702 24.2948 9.37246C24.238 9.6792 24.0108 9.94617 24.0164 10.3097C23.9994 10.3836 23.9824 10.5028 23.9653 10.5767C23.8971 10.7585 23.7608 10.8891 23.6927 11.0765C23.6813 11.1504 23.5336 11.1618 23.5166 11.2356C23.4257 11.3322 23.4314 11.4969 23.3689 11.6446C23.3178 11.7127 23.2155 11.69 23.1303 11.7525C23.0337 11.8888 23.0451 12.0138 22.9826 12.1558C22.8747 12.3319 22.7497 12.525 22.6475 12.7011C22.5282 12.9567 22.3294 13.1953 22.1135 13.3884C22.0795 13.3827 21.9999 13.4055 21.9602 13.4339C21.8466 13.6497 21.7216 13.8088 21.483 13.9167C21.4489 13.911 21.3978 14.0757 21.3524 14.1041C21.1877 14.2234 21.0968 14.3654 20.898 14.479C20.8241 14.5018 20.7844 14.5302 20.6992 14.3938C20.4379 14.8539 20.0914 15.2118 19.7165 15.5299C19.5177 15.6435 19.3188 15.6321 19.1882 15.7628C18.7565 16.1831 18.0749 16.6319 18.001 16.6943C17.9669 16.6887 17.8363 16.8818 17.8363 16.8818C17.7 16.8932 17.7795 16.9045 17.6488 16.8818C17.6488 16.8818 17.6432 17.0976 17.4671 17.1317C17.0979 17.2056 17.0013 17.6316 16.9729 17.8077C16.9558 17.8986 16.899 17.8361 16.8536 17.8702C16.8138 17.9042 16.8422 17.961 16.7968 17.9951C16.6377 18.0917 16.4957 18.2905 16.3651 18.4439C16.3253 18.478 16.2969 18.4268 16.2515 18.4609C16.2117 18.495 16.0129 18.7392 15.9448 18.9551C15.7743 19.33 15.5926 19.6651 15.3597 19.9264C15.3029 19.9889 15.4903 20.2388 15.479 20.324C15.4278 20.4433 15.3199 20.4604 15.2688 20.5797C15.2234 20.8694 15.2063 21.1988 15.1552 21.5112C15.07 21.8123 15.1779 22.0281 15.2177 22.3008C15.2631 22.528 15.2063 22.8234 15.2177 23.0449C15.2347 23.221 15.354 23.4198 15.337 23.5902C15.3426 23.8572 15.2802 23.8231 15.337 24.0446C15.3313 24.1753 15.2858 24.3059 15.3142 24.3911C15.3029 24.5672 15.2745 24.6751 15.2688 24.8455C15.229 24.8853 15.1552 24.9705 15.1552 25.0103C15.1268 25.4477 14.8428 25.8282 14.5474 26.1179C14.36 26.2372 14.2009 26.419 13.9907 26.4019C13.8828 26.3963 13.5306 26.6178 13.4113 26.6462C13.0989 26.7314 12.849 26.7371 12.5479 26.6916C12.2185 26.6008 11.9515 26.5212 11.7243 26.1804C11.588 26.027 11.3551 26.0838 11.2699 25.851C11.2415 25.7601 11.054 25.709 11.02 25.6635C10.8439 25.5101 10.753 25.317 10.6223 25.1239C10.5371 24.891 10.5996 24.7319 10.4917 24.5104C10.3838 24.3741 10.3383 24.2775 10.2304 24.1355C10.0884 23.9537 10.2645 23.6925 10.1565 23.5107C10.0827 23.4596 10.0089 23.3687 9.97478 23.2778C9.90662 23.1017 9.92366 22.8404 9.81573 22.653C9.75893 22.4257 9.79301 21.6021 9.83845 21.3806C9.84413 21.3351 9.71917 21.2727 9.72485 21.2272C9.74189 20.9091 9.85549 20.5967 9.82709 20.2672C9.86117 20.0912 9.84413 19.9491 10.0032 19.7958C10.0032 19.7958 9.92934 19.7333 9.93502 19.6879C10.0259 19.4322 10.0259 19.2334 10.077 18.9665C10.0827 18.921 10.1793 18.8926 10.1849 18.8529C10.1338 18.6597 10.1281 18.2621 10.1622 18.086C10.1793 17.9951 10.4065 17.8645 10.4633 17.785C10.469 17.7395 10.4292 17.6259 10.5144 17.4725C10.5371 17.4328 10.5939 17.4441 10.6394 17.4101C10.6451 17.3646 10.6167 17.3135 10.628 17.2681C10.6507 17.1374 10.8723 17.0408 10.8893 16.95C10.9802 16.6489 11.1279 16.5239 11.2869 16.2797C11.3437 16.1718 11.3664 16.0582 11.4573 15.9559C11.4971 15.9275 11.5198 15.9559 11.5255 15.9161C11.5312 15.8764 11.5141 15.7912 11.5198 15.7571C11.6107 15.6549 11.73 15.564 11.7527 15.4504C11.8152 15.3027 11.8663 15.2004 11.9572 15.0982C12.1219 14.9732 12.2867 14.8539 12.3889 14.6778C12.4798 14.5756 12.582 14.5983 12.6672 14.5018C12.7979 14.3711 12.832 14.178 12.9285 14.0417C13.1557 13.7747 13.4 13.5872 13.6442 13.4055C13.8487 13.2521 14.11 13.1896 14.3088 13.076C14.5133 12.9226 14.6383 12.6329 14.8371 12.5193C14.9564 12.4285 15.1041 12.4171 15.229 12.3262C15.354 12.2353 15.4563 12.0592 15.638 12.0195C16.047 11.9115 15.7516 12.0252 16.1379 11.8718C16.3765 11.7241 16.2799 11.6843 16.5185 11.5423C16.9161 11.3094 17.1206 11.1674 17.1547 11.1731C17.1944 11.1447 17.2342 11.1106 17.2512 11.0368C17.3478 10.9005 17.8533 10.5426 17.9272 10.5199C18.001 10.4972 18.0919 10.5937 18.1771 10.4972C18.2225 10.429 18.1317 10.3665 18.1771 10.2983C18.3077 10.1677 18.4327 9.99161 18.5577 9.90073C18.5974 9.87233 18.6997 9.92913 18.7735 9.90641C18.8133 9.87801 18.8303 9.79849 18.8701 9.77008C18.9212 9.70192 18.8303 9.59968 18.8758 9.53151C18.9326 9.42359 18.9894 9.31566 19.0632 9.29294C19.1825 9.24182 19.3416 9.15661 19.3245 9.07141C19.3529 8.91804 19.4154 8.77035 19.5745 8.68515C19.5801 8.64539 19.5915 8.60563 19.5972 8.57154C19.6881 8.4693 19.7733 8.4125 19.8641 8.31025C19.9607 8.17392 19.921 8.00352 19.9778 7.89559C20.1595 7.69678 20.3356 7.53773 20.3811 7.26508C20.3697 7.14011 20.2902 6.96402 20.347 6.8561C20.3924 6.78794 20.5458 6.74249 20.5628 6.66865C20.5912 6.51528 20.5117 6.33919 20.506 6.18015C20.5287 6.06654 20.6537 5.96998 20.6367 5.85069C20.6253 5.52691 20.6423 5.2145 20.5969 4.88504C20.7048 4.868 20.7219 4.79416 20.7332 4.71463C20.7048 4.47038 20.5628 4.24317 20.5003 3.98756C20.4947 3.82851 20.6253 3.69786 20.6196 3.53882C20.6026 3.41385 20.489 3.27184 20.3583 3.16392C20.239 3.01623 20.3186 2.7947 20.2731 2.62997C20.239 2.42548 20.0857 2.26643 20.0573 2.02218C20.0459 1.89721 19.8982 1.90857 19.8471 1.77793C19.8073 1.60752 19.7619 1.44279 19.7619 1.2383C19.7392 1.1531 19.6313 1.17014 19.5688 1.11902C19.4268 0.886124 19.4779 0.420341 19.1712 0.312415C19.1996 0.159048 19.0575 0.124966 19.0121 0C19.1939 0 19.3643 0.0738436 19.4665 0.301055C19.4949 0.346497 19.5972 0.369218 19.6313 0.380579C19.7221 0.477144 19.7165 0.715715 19.813 0.778198C19.938 0.886124 20.1254 0.846362 20.1766 0.977008C20.2447 1.19286 20.4095 1.30646 20.4833 1.48255C20.4776 1.52232 20.4947 1.60752 20.5231 1.65296C20.648 1.76089 20.6651 1.88017 20.7503 1.98242C20.9604 2.22667 21.1706 2.4766 21.074 2.81174C21.0116 2.95943 21.199 2.91966 21.2558 3.01055C21.3978 3.24344 21.341 3.55018 21.5228 3.74899C21.4887 4.14092 21.6762 4.49878 21.7954 4.84528C21.591 5.15769 21.7046 5.70868 21.8636 6.02678C21.8636 6.02678 21.9772 6.00974 21.9829 5.97566C22.017 5.78821 22.3635 5.72004 22.3067 5.62916C22.2385 5.41331 22.1306 4.96457 22.1306 4.76576C22.1533 4.44766 22.1647 4.17501 22.1135 3.84555C22.0851 3.80011 22.0567 3.75467 22.0283 3.70922C21.9886 3.53882 21.9431 3.36841 21.9772 3.18096C21.9545 3.09575 21.892 3.04463 21.8693 2.95943C21.875 2.91966 21.892 2.84582 21.8977 2.80606C21.9772 2.78334 22.0738 2.84582 22.1419 2.86286C22.2044 2.91398 22.1476 3.02191 22.176 3.06735C22.2896 3.24912 22.4544 3.32864 22.4884 3.53313C22.4828 3.5729 22.4657 3.64674 22.46 3.6865C22.4884 3.93075 22.6361 4.12388 22.6702 4.32837C22.6872 4.44766 22.5793 4.62375 22.6304 4.76008C22.7895 5.07249 22.7952 5.43603 22.7725 5.78821C22.7441 5.94157 22.9372 6.06654 22.8861 6.16878C22.8293 6.27671 22.9031 6.29375 22.8463 6.40168C22.8406 6.44144 22.7611 6.46416 22.7554 6.50392C22.8577 6.72545 22.7043 7.06059 22.6645 7.25372C22.6588 7.29348 22.7838 7.33324 22.8122 7.19124C22.8293 7.10603 22.9713 7.10603 23.0508 7.08331C23.136 7.02083 23.1985 6.87314 23.1928 6.71409L23.2269 6.70273ZM23.9767 7.46957C23.9824 7.27644 24.0732 7.13443 24.0392 6.92426C23.971 6.70841 23.8119 6.92426 23.6983 6.93562C23.7608 7.19124 23.6586 7.36164 23.5791 7.58886C23.5336 7.65702 23.4938 7.85015 23.6075 7.83311C23.7835 7.87287 23.971 7.70246 23.9767 7.46957ZM23.6813 8.52042C23.7267 8.45794 23.704 8.33297 23.6415 8.28185C23.545 8.21937 23.42 8.31593 23.3632 8.41818C23.3064 8.5261 23.3518 8.69651 23.4995 8.68515C23.5336 8.69083 23.6359 8.58858 23.687 8.52042H23.6813Z" fill="var(--fill-0, #0081C8)" id="Vector_2"/>
<path d="M21.625 1.97674C21.8125 2.11874 21.8863 2.35164 22.034 2.54477L22.017 2.62429C21.7614 2.84582 21.5341 2.4766 21.466 2.26075C21.3637 2.03922 21.2558 1.81769 21.0684 1.65296C21.074 1.6132 21.0854 1.57912 21.0911 1.53936C21.0002 1.43711 20.8809 1.2951 21.0002 1.2383C21.0513 1.17014 21.1365 1.30646 21.2331 1.36895C21.3808 1.56208 21.4092 1.80633 21.6307 1.97674H21.625Z" fill="var(--fill-0, #0081C8)" id="Vector_3"/>
<path d="M22.6816 0.994049C22.6816 1.03381 22.6191 1.10197 22.6134 1.13606C22.4941 1.02245 22.3692 0.908845 22.2669 0.721396C22.2328 0.710035 22.1647 0.692994 22.1363 0.647552C22.1022 0.636191 22.1079 0.60211 22.1192 0.562348C22.2328 0.550987 22.318 0.653232 22.4146 0.721396C22.4487 0.732756 22.4941 0.704355 22.5282 0.710035C22.6248 0.772518 22.6759 0.869083 22.6872 0.994049H22.6816Z" fill="var(--fill-0, #0081C8)" id="Vector_4"/>
<path d="M6.90175 8.04896C6.93583 8.07736 6.98695 8.1228 7.00967 8.15688C7.06647 8.19665 7.12328 8.19665 7.18576 8.17392C7.24256 8.17392 7.29369 8.32729 7.35617 8.33297C7.44137 8.37273 7.4925 8.52042 7.5777 8.59427C7.6345 8.62835 7.69131 8.68515 7.74811 8.71923C7.82763 8.82148 7.87875 8.92372 7.96396 8.99188C8.01508 9.06005 8.10597 9.03733 8.16845 9.03733C8.28205 9.07709 8.3275 9.24182 8.40702 9.34406C8.43542 9.34406 8.48654 9.44631 8.48654 9.48039C8.54335 9.51447 8.59447 9.58263 8.67967 9.6224C8.7024 9.65648 8.7024 9.71896 8.72512 9.75304C8.93529 10.0939 9.21362 10.3097 9.38971 10.6732C9.38971 10.6732 9.41243 10.7414 9.41243 10.7698C9.62828 10.98 9.72485 11.281 9.9123 11.5196C9.96342 11.6219 10.0089 11.7866 10.06 11.9172C10.1168 11.9854 10.1679 12.0252 10.2247 12.0933C10.3042 12.2296 10.3781 12.3944 10.3951 12.5591C10.3951 12.6216 10.3497 12.8147 10.2361 12.7068C10.0997 12.5648 10.1111 12.3773 9.97478 12.2694C9.97478 12.2353 9.9407 12.1558 9.9123 12.1217C9.85549 12.0536 9.75893 12.0592 9.73621 11.9627C9.74189 11.8661 9.63396 11.7866 9.58284 11.7241C9.44651 11.5253 9.24202 11.4514 9.07729 11.2526C9.04889 11.2526 9.01481 11.2526 8.98641 11.281C8.95801 11.3435 8.86712 11.4344 8.94665 11.5367C9.06025 11.6048 9.11706 11.7355 9.25906 11.8093C9.34427 11.8775 9.36699 12.0706 9.41811 12.2353C9.47491 12.3035 9.53172 12.366 9.61692 12.4057C9.70213 12.4739 9.66804 12.5761 9.74757 12.6784C9.74757 12.7125 9.71349 12.7409 9.71349 12.7693C9.76461 12.8715 9.88389 12.8488 9.96342 12.951C10.0259 12.8942 10.1111 12.9397 10.1622 13.0306C10.0657 13.1214 10.0941 13.1839 10.0543 13.2805C9.95774 13.4339 10.1793 13.5816 10.3213 13.6554C10.4122 13.6611 10.3951 13.8201 10.4803 13.894C10.5314 13.9962 10.6791 14.0076 10.753 14.1439C10.7757 14.2121 10.7189 14.2348 10.6848 14.2973C10.6791 14.3938 10.7927 14.4336 10.8495 14.4734C10.9063 14.5131 10.9291 14.5756 10.9518 14.6438C10.8609 14.6665 10.6905 14.5472 10.5996 14.5415C10.5428 14.5188 10.4406 14.3938 10.327 14.3654C10.2872 14.3541 10.2588 14.4506 10.219 14.4393C10.1679 14.4279 10.1111 14.4166 10.0543 14.4052C9.99182 14.3938 9.84413 14.2291 9.78165 14.2234C9.70781 14.2121 9.61692 14.3427 9.54876 14.3313C9.28746 14.2859 9.2761 14.2689 9.1909 14.2348C9.09434 14.195 8.99777 14.1496 8.91257 14.0985C8.85576 14.0701 8.8728 13.9905 8.816 13.9565C8.76488 13.9224 8.64559 13.9224 8.59447 13.8883C8.3843 13.7576 8.18549 13.4679 8.00372 13.3714C7.88444 13.3089 7.78787 13.2464 7.65154 13.1839C7.58906 13.1442 7.53794 13.0533 7.45841 13.0249C7.20848 12.9397 7.00967 12.7863 6.73134 12.7068C6.19739 12.5534 5.75433 12.8602 5.31695 13.0874C5.29423 13.0874 5.24878 13.0874 5.22606 13.0987C5.12382 13.1839 5.01021 13.2294 4.90797 13.2975C4.77164 13.4055 4.58419 13.4339 4.4365 13.5191C4.39106 13.5475 4.38538 13.6327 4.33994 13.6611C4.27178 13.7008 4.14113 13.7122 4.07297 13.752C4.01048 13.7917 4.0048 13.8656 3.94232 13.9167C3.81735 14.0189 3.69807 14.0985 3.52766 14.178C3.43109 14.2291 2.63018 14.3654 2.49953 14.3654C2.29504 14.3654 2.14735 14.5358 1.84062 14.5358C1.37483 14.5358 0.90337 14.5245 0.517111 14.2348C0.437587 14.1666 0.420546 13.9678 0.363743 13.9337C0.193335 13.8258 0.210376 13.5986 0.164933 13.4339C0.108131 13.3998 -0.00547497 13.3884 0.000205309 13.2919C0.0626884 12.8147 0.30126 12.383 0.590955 12.0536C0.659118 11.9286 0.806805 11.8775 0.823846 11.7184C0.823846 11.7184 1.08514 11.3549 1.24419 11.2072C1.27827 11.1447 1.22715 11.0425 1.26123 10.9857C1.4998 10.5199 1.9315 10.2018 2.28936 9.78144C2.38592 9.69056 2.44841 9.57127 2.60177 9.54855C2.66426 9.54855 2.72106 9.55991 2.75514 9.49743C2.8233 9.34406 2.94827 9.25886 3.03916 9.19638C3.37997 8.96348 3.66399 8.61699 4.05025 8.5545C4.11273 8.5261 4.14681 8.46362 4.20361 8.43522C4.2661 8.37841 4.3797 8.44658 4.44218 8.42386C4.73188 8.29321 4.99317 8.01488 5.28855 7.97511C5.35103 7.94671 5.38511 7.88423 5.41351 7.88991C5.67481 7.91263 5.98722 7.67974 6.23147 7.92399C6.453 7.87855 6.78814 7.92399 6.92447 8.04328L6.90175 8.04896ZM8.91257 10.8607C8.91257 10.8266 8.91257 10.7982 8.91257 10.7641C8.79896 10.696 8.74784 10.4972 8.60015 10.4574C8.57175 10.4574 8.50927 10.4858 8.50927 10.5199C8.50359 10.713 8.58311 10.8437 8.66263 11.0084C8.69672 10.8834 8.78192 10.8891 8.83872 10.9857C8.86712 10.9573 8.90121 10.8948 8.90121 10.8607H8.91257Z" fill="var(--fill-0, #00943B)" id="Vector_5"/>
</g>
</svg>