<?xml version="1.0" encoding="utf-8"?>
<svg xmlns="http://www.w3.org/2000/svg" fill="none" height="100%" overflow="visible" preserveAspectRatio="none" style="display: block;" viewBox="0 0 79 18" width="100%">
<g id="Group">
<path d="M10.0314 10.3892L8.70787 11.7695L5.02705 8.1796C4.54423 9.03733 3.96484 9.7644 3.29456 10.3665C2.62429 10.9629 1.95402 11.4514 1.28942 11.8263L0 10.3552C0.727076 9.99161 1.34623 9.57127 1.85745 9.08845C2.36868 8.60563 2.78902 8.0944 3.11848 7.56613C3.44225 7.03219 3.68082 6.49256 3.83419 5.93589C3.98188 5.37923 4.0614 4.83392 4.0614 4.30565V1.76657H6.09494V3.94212C6.09494 4.36814 6.06654 4.77144 6.01542 5.1577C5.95861 5.54395 5.89045 5.91885 5.80525 6.28239L10.0314 10.4006V10.3892ZM14.2405 16.6262H12.3149V6.90154H8.30457V5.04977H12.3149V0.113606H14.2405V16.6205V16.6262Z" fill="var(--fill-0, #231815)" id="Vector"/>
<path d="M31.6448 9.41223H24.7717V10.3211H28.1799V14.5813H21.5964V15.3992H28.6173V17.251H19.6026V12.8261H26.1691V12.099H19.5118V10.3211H22.829V9.41223H16.0979V7.60022H31.6448V9.41223ZM28.0151 3.5729C28.0151 4.09548 27.9015 4.56695 27.68 4.99865C27.4585 5.43035 27.1574 5.79957 26.7825 6.11198C26.3963 6.41304 25.9362 6.65161 25.4136 6.82202C24.8853 6.99243 24.3173 7.07763 23.6981 7.07763C23.1187 7.07763 22.5734 6.99811 22.0565 6.83906C21.5396 6.68001 21.0852 6.4528 20.6876 6.15174C20.3013 5.85069 19.9946 5.48147 19.7731 5.05545C19.5515 4.62375 19.4379 4.14092 19.4379 3.59562C19.4379 3.05031 19.5458 2.55613 19.7617 2.11874C19.9776 1.67568 20.2843 1.30078 20.6705 0.982688C21.0454 0.670273 21.4942 0.426022 22.0111 0.255613C22.528 0.0852046 23.0903 0 23.6981 0C24.3059 0 24.8512 0.0852046 25.3738 0.255613C25.9021 0.426022 26.3565 0.664593 26.7428 0.982688C27.129 1.28374 27.4358 1.65864 27.6686 2.09602C27.8959 2.53909 28.0151 3.03327 28.0151 3.5729ZM26.0214 3.55018C26.0214 2.98215 25.7942 2.53341 25.3341 2.20963C24.874 1.88017 24.3286 1.72113 23.7038 1.72113C23.079 1.72113 22.5053 1.88017 22.0622 2.20395C21.6191 2.52205 21.4033 2.97647 21.4033 3.55586C21.4033 4.13524 21.6248 4.5499 22.0622 4.86232C22.5053 5.17474 23.0506 5.33378 23.7038 5.33378C24.357 5.33378 24.874 5.19178 25.3341 4.90208C25.7942 4.61239 26.0214 4.16365 26.0214 3.56154V3.55018Z" fill="var(--fill-0, #231815)" id="Vector_2"/>
<path d="M47.9757 10.5994H32.4514V8.77035H47.9757V10.5994ZM44.6016 17.2453H42.6589V13.4623H35.7119V11.6105H44.6016V17.2453ZM44.5675 7.82175H35.7858V0.675954H44.4539V2.505H37.7057V3.2832H44.238V5.13497H37.7057V5.98702H44.5618V7.81607L44.5675 7.82175Z" fill="var(--fill-0, #231815)" id="Vector_3"/>
<path d="M56.6835 8.5545H49.2992V1.01109H51.2191V3.18664H54.7409V1.01109H56.6835V8.5545ZM54.7409 6.72545V5.02137H51.2191V6.72545H54.7409ZM62.1423 17.2453H53.2356V12.6897H59.7111V11.7468H53.1447V9.91209H61.7049V14.4677H55.2691V15.4106H62.1423V17.2397V17.2453ZM62.29 9.3895H60.3871V7.62862H57.2686V5.81093H60.3871V4.50446H57.2686V2.66973H60.3871V0.113606H62.29V9.38382V9.3895Z" fill="var(--fill-0, #231815)" id="Vector_4"/>
<path d="M74.122 10.446L72.7985 11.8263L69.1347 8.21937C68.6632 9.08845 68.0895 9.82689 67.4193 10.4233C66.749 11.0197 66.0674 11.5082 65.38 11.8831L64.0906 10.412C64.8291 10.0143 65.4539 9.57127 65.9708 9.08845C66.482 8.60563 66.9024 8.10008 67.2318 7.58318C67.5442 7.04923 67.7771 6.51528 67.9305 5.96998C68.0839 5.42467 68.1577 4.88504 68.1577 4.35678V1.76089H70.1912V3.99324C70.1912 4.41926 70.1628 4.81688 70.1117 5.19746C70.0549 5.57804 69.9867 5.94157 69.9015 6.29375L74.1277 10.446H74.122ZM78.0925 16.6262H76.1498V0.119286H78.0925V16.6262Z" fill="var(--fill-0, #231815)" id="Vector_5"/>
</g>
</svg>