<?xml version="1.0" encoding="utf-8"?>
<svg xmlns="http://www.w3.org/2000/svg" fill="none" height="100%" overflow="visible" preserveAspectRatio="none" style="display: block;" viewBox="0 0 160 27" width="100%">
<g id="Group">
<path d="M59.6134 0.622274H54.8075V26.4024H71.2552V22.0635H59.6134V0.622274Z" fill="var(--fill-0, #FDB933)" id="Vector"/>
<path d="M79.4349 0.622274H74.629V26.4024H91.0766V22.0635H79.4349V0.622274Z" fill="var(--fill-0, white)" id="Vector_2"/>
<path d="M99.262 15.4505H109.395V11.1336H99.262V4.96668H111.54V0.622274H94.4561V26.4024H111.54V22.0635H99.262V15.4505Z" fill="var(--fill-0, white)" id="Vector_3"/>
<path d="M159.989 0.622274H154.832L148.024 12.3175L141.21 0.622274H136.053L145.604 17.0198V26.4024H150.438V17.0198L159.989 0.622274Z" fill="var(--fill-0, #27AAE1)" id="Vector_4"/>
<path d="M26.482 11.7558H12.7555V16.0947H21.3249C20.1838 19.4535 17.0128 21.8762 13.2876 21.8762C8.60239 21.8762 4.78947 18.0494 4.78947 13.3471C4.78947 8.64476 8.60239 4.81794 13.2876 4.81794C16.4916 4.81794 19.2895 6.60746 20.7379 9.24494L24.2216 5.7595C21.8187 2.28508 17.8192 0 13.2931 0C5.96352 0 0 5.98526 0 13.3416C0 20.6979 5.96352 26.6831 13.2931 26.6831C20.6227 26.6831 26.5862 20.6979 26.5862 13.3416C26.5862 12.802 26.5533 12.2679 26.4929 11.7503L26.482 11.7558Z" fill="var(--fill-0, white)" id="Vector_5"/>
<path d="M130.918 26.4024H136.069L130.566 15.7699C133.386 14.575 135.361 11.7724 135.361 8.50718C135.361 4.15176 131.845 0.622274 127.505 0.622274H115.534V26.3969H120.34V16.3866H125.733L130.912 26.3969L130.918 26.4024ZM120.346 4.96668H127.028C128.975 4.96668 130.555 6.55247 130.555 8.50718C130.555 10.4619 128.975 12.0477 127.028 12.0477H120.346V4.96117V4.96668Z" fill="var(--fill-0, white)" id="Vector_6"/>
<path d="M51.8669 26.4024L42.7707 0.622274H35.6771L26.5809 26.4024H31.6337L39.2212 4.9006L46.8086 26.4024H51.8669Z" fill="var(--fill-0, white)" id="Vector_7"/>
</g>
</svg>