<svg width="24" height="24" viewBox="0 0 24 24" fill="none" xmlns="http://www.w3.org/2000/svg">
<g clip-path="url(#clip0_5731_7070)">
<path d="M2.9998 8.84063C2.9998 3.95625 7.03105 0 11.9998 0C16.9686 0 20.9998 3.95625 20.9998 8.84063C20.9998 14.4328 15.3654 21.1359 13.0123 23.6906C12.4592 24.2906 11.5357 24.2906 10.9826 23.6906C8.62949 21.1359 2.99512 14.4328 2.99512 8.84063H2.9998ZM11.9998 12C12.7955 12 13.5585 11.6839 14.1211 11.1213C14.6837 10.5587 14.9998 9.79565 14.9998 9C14.9998 8.20435 14.6837 7.44129 14.1211 6.87868C13.5585 6.31607 12.7955 6 11.9998 6C11.2042 6 10.4411 6.31607 9.87848 6.87868C9.31588 7.44129 8.9998 8.20435 8.9998 9C8.9998 9.79565 9.31588 10.5587 9.87848 11.1213C10.4411 11.6839 11.2042 12 11.9998 12Z" fill="#111111"/>
</g>
<defs>
<clipPath id="clip0_5731_7070">
<rect width="24" height="24" fill="white"/>
</clipPath>
</defs>
</svg>
