<svg width="24" height="24" viewBox="0 0 24 24" fill="none" xmlns="http://www.w3.org/2000/svg">
<path d="M0 6.33341C0 4.86258 1.19583 3.66675 2.66667 3.66675H21.3333C22.8042 3.66675 24 4.86258 24 6.33341V9.00008C24 9.36675 23.6917 9.65425 23.3458 9.77508C22.5625 10.0459 22 10.7917 22 11.6667C22 12.5417 22.5625 13.2876 23.3458 13.5584C23.6917 13.6792 24 13.9667 24 14.3334V17.0001C24 18.4709 22.8042 19.6667 21.3333 19.6667H2.66667C1.19583 19.6667 0 18.4709 0 17.0001V14.3334C0 13.9667 0.308333 13.6792 0.654167 13.5584C1.4375 13.2876 2 12.5417 2 11.6667C2 10.7917 1.4375 10.0459 0.654167 9.77508C0.308333 9.65425 0 9.36675 0 9.00008V6.33341Z" fill="#111111"/>
</svg>
