<?xml version="1.0" encoding="utf-8"?>
<svg xmlns="http://www.w3.org/2000/svg" fill="none" height="100%" overflow="visible" preserveAspectRatio="none" style="display: block;" viewBox="0 0 24 16" width="100%">
<path d="M0 2.66667C0 1.19583 1.19583 0 2.66667 0H21.3333C22.8042 0 24 1.19583 24 2.66667V5.33333C24 5.7 23.6917 5.9875 23.3458 6.10833C22.5625 6.37917 22 7.125 22 8C22 8.875 22.5625 9.62083 23.3458 9.89167C23.6917 10.0125 24 10.3 24 10.6667V13.3333C24 14.8042 22.8042 16 21.3333 16H2.66667C1.19583 16 0 14.8042 0 13.3333V10.6667C0 10.3 0.308333 10.0125 0.654167 9.89167C1.4375 9.62083 2 8.875 2 8C2 7.125 1.4375 6.37917 0.654167 6.10833C0.308333 5.9875 0 5.7 0 5.33333V2.66667Z" fill="var(--fill-0, #111111)" id="Primary"/>
</svg>