<?xml version="1.0" encoding="utf-8"?>
<svg xmlns="http://www.w3.org/2000/svg" fill="none" height="100%" overflow="visible" preserveAspectRatio="none" style="display: block;" viewBox="0 0 119 27" width="100%">
<g id="Group">
<path d="M57.8084 26.6832C65.138 26.6832 71.1015 20.6979 71.1015 13.3416C71.1015 5.98528 65.138 2.65645e-05 57.8084 2.65645e-05C50.4788 2.65645e-05 44.5153 5.98528 44.5153 13.3416C44.5153 20.6979 50.4788 26.6832 57.8084 26.6832ZM49.3103 13.3416C49.3103 8.63928 53.1232 4.81246 57.8084 4.81246C62.4937 4.81246 66.3066 8.63928 66.3066 13.3416C66.3066 18.0439 62.4937 21.8707 57.8084 21.8707C53.1232 21.8707 49.3103 18.0439 49.3103 13.3416Z" fill="var(--fill-0, #EE3E79)" id="Vector"/>
<path d="M42.5676 0.622273H25.4835V26.3969H42.5676V22.058H30.284V15.4505H40.4225V11.1281H30.284V4.93915H42.5676V0.622273Z" fill="var(--fill-0, white)" id="Vector_2"/>
<path d="M96.6779 0.622273H91.872V16.3921C91.872 19.5692 89.299 22.1516 86.1334 22.1516C82.9679 22.1516 80.5485 19.7233 80.4003 16.6784V0.622273H75.5999V16.1113C75.5944 21.9423 80.318 26.6887 86.1279 26.6887C91.9378 26.6887 96.5353 22.0745 96.667 16.359L96.6779 0.627779V0.622273Z" fill="var(--fill-0, white)" id="Vector_3"/>
<path d="M118.585 22.058H106.948V0.622273H102.142V26.3969H118.585V22.058Z" fill="var(--fill-0, white)" id="Vector_4"/>
<path d="M11.4717 10.9739C9.49664 10.5774 6.18297 9.66341 6.00741 7.80231C5.9306 7.01492 6.2104 6.2881 6.78096 5.72096C7.60938 4.88952 8.98642 4.44902 10.5774 4.49307C12.9091 4.54263 14.8567 5.56128 16.3599 7.67567L20.0027 5.76501C17.8247 1.79503 13.913 0 10.5829 0C6.47374 0 4.21341 1.58028 3.03936 2.8302C1.76108 4.19023 1.09176 5.9357 1.16308 7.74174C1.31121 11.7668 4.10918 14.0409 10.5171 15.3348C12.1739 15.6982 16.0362 16.7774 16.0362 19.0185C16.0362 19.6957 15.6138 20.5382 15.0048 21.1274C13.743 22.3552 11.5814 22.5424 9.83679 22.3222C8.16898 22.1185 4.67974 20.9071 3.23138 17.9558L0 20.8025C1.5526 23.8199 5.34906 26.6446 10.8627 26.6831C14.1544 26.6831 17.117 25.6204 19.0372 23.7373C20.4362 22.3663 21.2097 20.6208 21.2097 18.8258C21.2097 14.8558 17.8467 12.1412 11.4772 10.9739H11.4717Z" fill="var(--fill-0, #45B97C)" id="Vector_5"/>
</g>
</svg>