<svg width="160" height="62" viewBox="0 0 160 62" fill="none" xmlns="http://www.w3.org/2000/svg">
<g clip-path="url(#clip0_5939_13489)">
<path d="M58.9054 26.6831C66.235 26.6831 72.1985 20.6979 72.1985 13.3416C72.1985 5.98526 66.235 0 58.9054 0C51.5758 0 45.6123 5.98526 45.6123 13.3416C45.6123 20.6979 51.5758 26.6831 58.9054 26.6831ZM50.4073 13.3416C50.4073 8.63925 54.2202 4.81243 58.9054 4.81243C63.5906 4.81243 67.4036 8.63925 67.4036 13.3416C67.4036 18.0439 63.5906 21.8707 58.9054 21.8707C54.2202 21.8707 50.4073 18.0439 50.4073 13.3416Z" fill="#EE3E79"/>
<path d="M43.6646 0.622314H26.5806V26.3969H43.6646V22.058H31.381V15.4506H41.5195V11.1282H31.381V4.93919H43.6646V0.622314Z" fill="white"/>
<path d="M97.7748 0.622314H92.9689V16.3921C92.9689 19.5692 90.3959 22.1516 87.2303 22.1516C84.0648 22.1516 81.6453 19.7234 81.4972 16.6784V0.622314H76.6968V16.1113C76.6913 21.9424 81.4149 26.6887 87.2248 26.6887C93.0347 26.6887 97.6322 22.0745 97.7638 16.3591L97.7748 0.627821V0.622314Z" fill="white"/>
<path d="M119.681 22.058H108.045V0.622314H103.239V26.3969H119.681V22.058Z" fill="white"/>
<path d="M12.5688 10.9739C10.5938 10.5774 7.28013 9.66341 7.10457 7.80231C7.02777 7.01492 7.30756 6.2881 7.87813 5.72096C8.70655 4.88952 10.0836 4.44902 11.6746 4.49307C14.0062 4.54263 15.9538 5.56128 17.4571 7.67567L21.0999 5.76501C18.9219 1.79503 15.0102 0 11.6801 0C7.5709 0 5.31058 1.58028 4.13653 2.8302C2.85824 4.19023 2.18892 5.9357 2.26025 7.74174C2.40837 11.7668 5.20634 14.0409 11.6142 15.3348C13.2711 15.6982 17.1334 16.7774 17.1334 19.0185C17.1334 19.6957 16.7109 20.5382 16.102 21.1274C14.8401 22.3552 12.6786 22.5424 10.934 22.3222C9.26614 22.1185 5.77691 20.9071 4.32855 17.9558L1.09717 20.8025C2.64977 23.8199 6.44623 26.6446 11.9599 26.6831C15.2516 26.6831 18.2142 25.6204 20.1343 23.7373C21.5333 22.3663 22.3069 20.6208 22.3069 18.8258C22.3069 14.8558 18.9438 12.1412 12.5743 10.9739H12.5688Z" fill="#45B97C"/>
<path d="M59.6243 35.9333H54.8184V61.7135H71.266V57.3746H59.6243V35.9333Z" fill="#FDB933"/>
<path d="M79.4456 35.9333H74.6396V61.7135H91.0873V57.3746H79.4456V35.9333Z" fill="white"/>
<path d="M99.2727 50.7616H109.406V46.4447H99.2727V40.2778H111.551V35.9333H94.4668V61.7135H111.551V57.3746H99.2727V50.7616Z" fill="white"/>
<path d="M160 35.9333H154.843L148.034 47.6286L141.221 35.9333H136.063L145.615 52.3309V61.7135H150.448V52.3309L160 35.9333Z" fill="#27AAE1"/>
<path d="M26.4927 47.0671H12.7662V51.406H21.3357C20.1945 54.7647 17.0235 57.1875 13.2984 57.1875C8.61313 57.1875 4.80021 53.3607 4.80021 48.6584C4.80021 43.956 8.61313 40.1292 13.2984 40.1292C16.5023 40.1292 19.3003 41.9187 20.7486 44.5562L24.2324 41.0708C21.8294 37.5964 17.83 35.3113 13.3038 35.3113C5.97426 35.3113 0.0107422 41.2965 0.0107422 48.6528C0.0107422 56.0091 5.97426 61.9944 13.3038 61.9944C20.6334 61.9944 26.5969 56.0091 26.5969 48.6528C26.5969 48.1132 26.564 47.5791 26.5037 47.0615L26.4927 47.0671Z" fill="white"/>
<path d="M130.928 61.7135H136.08L130.577 51.0809C133.397 49.8861 135.372 47.0834 135.372 43.8183C135.372 39.4628 131.855 35.9333 127.516 35.9333H115.545V61.7079H120.351V51.6976H125.744L130.923 61.7079L130.928 61.7135ZM120.356 40.2778H127.039C128.986 40.2778 130.566 41.8635 130.566 43.8183C130.566 45.773 128.986 47.3587 127.039 47.3587H120.356V40.2722V40.2778Z" fill="white"/>
<path d="M51.8778 61.7135L42.7816 35.9333H35.6879L26.5918 61.7135H31.6446L39.232 40.2117L46.8195 61.7135H51.8778Z" fill="white"/>
</g>
<defs>
<clipPath id="clip0_5939_13489">
<rect width="160" height="62" fill="white"/>
</clipPath>
</defs>
</svg>
