<?xml version="1.0" encoding="utf-8"?>
<svg xmlns="http://www.w3.org/2000/svg" fill="none" height="100%" overflow="visible" preserveAspectRatio="none" style="display: block;" viewBox="0 0 1632 144" width="100%">
<g id="Group 1">
<path d="M330.286 0.5C371.895 0.5 405.745 32.3236 405.746 71.4766C405.746 110.63 371.895 142.5 330.286 142.5H329.786V142.542C288.358 142.288 254.827 110.52 254.827 71.5234C254.827 32.37 288.677 0.500236 330.286 0.5ZM330.286 25.2812C303.295 25.2815 281.256 45.9927 281.256 71.5234C281.256 97.0081 303.296 117.719 330.286 117.719C357.275 117.719 379.316 97.0548 379.316 71.5234C379.316 45.9926 357.276 25.2812 330.286 25.2812Z" id="Vector" stroke="var(--stroke-0, #EAECF0)"/>
<path d="M242.737 3.82666V25.9751H172.567V60.1489H230.47V82.2964H172.567V118.735H242.737V140.975H146.089V3.82666H242.737Z" id="Vector_2" stroke="var(--stroke-0, #EAECF0)"/>
<path d="M458.839 3.82666V89.4165L458.84 89.4292C459.688 106.025 473.764 119.243 492.068 119.243C510.373 119.243 525.346 105.186 525.346 87.8794V3.82666H551.776V87.6948C551.04 118.026 525.037 142.546 492.068 142.546C459.096 142.546 432.409 117.33 432.409 86.354V3.82666H458.839Z" id="Vector_3" stroke="var(--stroke-0, #EAECF0)"/>
<path d="M610.463 3.82666V118.735H677.001V140.975H584.034V3.82666H610.463Z" id="Vector_4" stroke="var(--stroke-0, #EAECF0)"/>
<path d="M60.5029 0.5C79.202 0.500111 101.21 9.89846 113.575 30.6084L93.624 40.4453C85.1148 29.4031 74.1377 23.9762 61.0928 23.543L60.4639 23.5264C51.2633 23.3401 43.2626 25.7106 38.4219 30.2686C35.1881 33.3135 33.4991 37.1909 33.8145 41.4521L33.8516 41.8662C34.126 44.5222 35.5865 46.805 37.7363 48.7529C39.8843 50.6991 42.7492 52.3396 45.9062 53.7197C52.2212 56.4802 59.8102 58.2439 65.4639 59.3086L65.5098 59.3174H65.5645C83.6837 62.4532 97.4802 67.64 106.737 74.6475C115.983 81.6465 120.701 90.4585 120.701 100.908C120.701 110.406 116.358 119.611 108.448 126.876V126.877C97.5725 136.889 80.7775 142.544 62.0752 142.545C30.9662 142.316 9.54664 127.511 0.639648 111.654L18.2988 97.0605C22.5418 104.795 29.529 110.257 36.627 113.932C43.4356 117.456 50.382 119.357 55.1934 120.043L56.127 120.164C61.168 120.746 66.8002 120.782 72.0908 119.842C77.3772 118.902 82.3595 116.981 86.0596 113.616C89.6123 110.412 92.1123 105.712 92.1123 101.925C92.1122 98.7537 90.6512 96.0215 88.3711 93.6973C86.0957 91.3778 82.9816 89.4389 79.6025 87.832C72.8432 84.6178 64.9081 82.6787 60.1611 81.7061L60.1543 81.7051L58.4561 81.375C41.0653 77.9224 28.5497 73.2532 20.2314 66.9209C11.6752 60.4073 7.53559 52.116 7.12402 41.4717V41.4707L7.09961 40.5762C6.97597 31.3457 10.7287 22.4936 17.7227 15.5098C24.3565 8.94437 37.1375 0.5 60.5029 0.5Z" id="Vector_5" stroke="var(--stroke-0, #EAECF0)"/>
<path d="M1058.07 3.82666V118.735H1124.56V140.975H1031.6V3.82666H1058.07Z" id="Vector_6" stroke="var(--stroke-0, #EAECF0)"/>
<path d="M1171.33 3.82666V118.735H1237.82V140.975H1144.85V3.82666H1171.33Z" id="Vector_7" stroke="var(--stroke-0, #EAECF0)"/>
<path d="M1354.75 3.82666V26.0669H1284.58V60.1489H1342.48V82.2964H1284.58V118.735H1354.75V140.975H1258.1V3.82666H1354.75Z" id="Vector_8" stroke="var(--stroke-0, #EAECF0)"/>
<path d="M1550.31 91.063L1550.23 90.9419L1496.14 3.82666H1524.46L1563.22 66.2886L1563.65 66.9731L1564.07 66.2886L1602.84 3.82666H1631.1L1577.01 90.9419L1576.94 91.063V140.975H1550.31V91.063Z" id="Vector_9" stroke="var(--stroke-0, #EAECF0)"/>
<path d="M793.894 0.5C819.38 0.5 841.968 12.5133 855.642 30.8057L836.549 48.7393C828.125 34.7409 812.138 25.2812 793.894 25.2812C766.903 25.2815 744.864 46.0392 744.864 71.5234C744.864 97.0078 766.854 117.719 793.894 117.719C815.392 117.719 833.692 104.61 840.293 86.3857L840.536 85.7158H791.4V63.4756H868.868C869.177 66.1301 869.354 68.7865 869.354 71.5234C869.353 110.677 835.551 142.546 793.894 142.546C752.236 142.546 718.435 110.677 718.435 71.5234C718.435 32.37 752.285 0.500232 793.894 0.5Z" id="Vector_10" stroke="var(--stroke-0, #EAECF0)"/>
<path d="M1446.42 3.8728C1470.95 3.8728 1490.77 22.5745 1490.77 45.6033C1490.77 62.8423 1479.63 77.6872 1463.7 84.0417L1463.18 84.2517L1463.45 84.7478L1494.5 140.975H1466.17L1436.75 87.6375L1436.61 87.3787H1405V141.021H1378.52V3.8728H1446.42ZM1405 65.0466H1443.67C1455.06 65.0464 1464.34 56.3486 1464.34 45.5564C1464.34 34.7644 1455.06 26.0673 1443.67 26.0671H1405V65.0466Z" id="Vector_11" stroke="var(--stroke-0, #EAECF0)"/>
<path d="M962.003 3.82666L1013.59 140.975H985.758L942.552 26.0679L942.084 24.8228L941.616 26.0679L898.41 140.975H870.576L922.164 3.82666H962.003Z" id="Vector_12" stroke="var(--stroke-0, #EAECF0)"/>
</g>
</svg>