<svg width="1542" height="144" viewBox="0 0 1542 144" fill="none" xmlns="http://www.w3.org/2000/svg">
<g clip-path="url(#clip0_5972_13543)">
<path d="M312.072 0.5C351.346 0.500008 383.342 32.2973 383.342 71.4766C383.342 110.656 351.345 142.5 312.072 142.5H311.572V142.542C272.482 142.273 240.801 110.537 240.801 71.5234C240.801 32.3436 272.798 0.5 312.072 0.5ZM312.072 25.2812C286.529 25.2812 265.718 46.0189 265.718 71.5234C265.718 96.982 286.529 117.719 312.072 117.719C337.614 117.719 358.425 97.0285 358.425 71.5234C358.425 46.0189 337.615 25.2813 312.072 25.2812Z" stroke="#EAECF0"/>
<path d="M229.323 3.82666V25.9751H163.024V60.1489H217.732V82.2964H163.024V118.735H229.323V140.975H138.06V3.82666H229.323Z" stroke="#EAECF0"/>
<path d="M433.507 3.82666V89.4155L433.508 89.4282C434.309 106 447.599 119.243 464.932 119.243C482.268 119.243 496.403 105.16 496.403 87.8794V3.82666H521.32V87.6948C520.624 118.052 496.043 142.546 464.932 142.546C433.819 142.546 408.59 117.357 408.59 86.354V3.82666H433.507Z" stroke="#EAECF0"/>
<path d="M576.771 3.82666V118.735H639.64V140.975H551.854V3.82666H576.771Z" stroke="#EAECF0"/>
<path d="M57.166 0.5C74.8163 0.5 95.6073 9.89115 107.29 30.6123L88.4727 40.4316C80.4346 29.4052 70.0609 23.9765 57.7256 23.543L57.1309 23.5264L56.3174 23.5156C47.9557 23.4897 40.7116 25.8567 36.2744 30.2783C33.2162 33.326 31.6247 37.1997 31.9219 41.4502L31.957 41.8633C32.2155 44.5109 33.5922 46.792 35.627 48.7432C37.6588 50.6915 40.3688 52.3335 43.3545 53.7148C49.326 56.4775 56.5004 58.2426 61.8438 59.3076L61.8926 59.3174H61.9443C79.0565 62.4523 92.0829 67.6372 100.823 74.6396C109.554 81.6341 114.017 90.4469 114.018 100.908C114.018 110.416 109.91 119.623 102.439 126.886L102.438 126.887C92.168 136.893 76.3106 142.544 58.6523 142.545C29.2727 142.316 9.03918 127.515 0.626953 111.65L17.2793 97.0869C21.2895 104.801 27.8824 110.254 34.584 113.926C41.4501 117.688 48.4657 119.601 53.0244 120.163H53.0254C57.7925 120.745 63.1197 120.782 68.125 119.841C73.1278 118.9 77.8423 116.974 81.3428 113.604C84.7028 110.397 87.0605 105.701 87.0605 101.925C87.0604 95.6019 81.581 91.0307 75.2354 87.8369C68.844 84.6202 61.3413 82.6801 56.8545 81.707L56.8477 81.7061L55.2432 81.376C38.8153 77.9242 26.9966 73.2576 19.1426 66.9297C11.0632 60.4201 7.14801 52.1272 6.75879 41.4727V41.4717L6.73633 40.5762C6.61947 31.3367 10.1674 22.4806 16.7734 15.499L16.7744 15.5C23.04 8.93704 35.106 0.500009 57.166 0.5Z" stroke="#EAECF0"/>
<path d="M999.698 3.82666V118.735H1062.52V140.975H974.734V3.82666H999.698Z" stroke="#EAECF0"/>
<path d="M1106.7 3.82666V118.735H1169.53V140.975H1081.74V3.82666H1106.7Z" stroke="#EAECF0"/>
<path d="M1280.01 3.82666V26.0669H1213.71V60.1489H1268.42V82.2964H1213.71V118.735H1280.01V140.975H1188.75V3.82666H1280.01Z" stroke="#EAECF0"/>
<path d="M1464.84 91.0698L1464.77 90.9526L1413.66 3.82666H1440.36L1476.98 66.2778L1477.42 67.0132L1477.85 66.2778L1514.47 3.82666H1541.13L1490.01 90.9526L1489.94 91.0698V140.975H1464.84V91.0698Z" stroke="#EAECF0"/>
<path d="M750.113 0.5C774.179 0.500005 795.516 12.5084 808.435 30.8076L790.424 48.7119C782.46 34.7367 767.359 25.2813 750.113 25.2812C724.57 25.2812 703.76 46.0654 703.76 71.5234C703.76 96.9817 724.524 117.719 750.113 117.719C770.455 117.719 787.749 104.593 793.982 86.3779L794.209 85.7158H747.785V63.4756H820.925C821.217 66.13 821.384 68.7863 821.384 71.5234C821.384 110.703 789.433 142.546 750.113 142.546C710.794 142.546 678.843 110.703 678.843 71.5234C678.843 32.3436 710.84 0.5 750.113 0.5Z" stroke="#EAECF0"/>
<path d="M1366.65 3.8728C1389.79 3.87296 1408.53 22.5483 1408.53 45.6033C1408.53 62.8592 1397.99 77.6985 1382.96 84.0457L1382.46 84.2566L1382.72 84.7371L1412.05 140.975H1385.34L1357.55 87.6482L1357.41 87.3787H1327.49V141.021H1302.52V3.8728H1366.65ZM1327.49 65.0466H1364.06C1374.86 65.0466 1383.61 56.3224 1383.61 45.5564C1383.61 34.7905 1374.86 26.0671 1364.06 26.0671H1327.49V65.0466Z" stroke="#EAECF0"/>
<path d="M908.926 3.82666L957.669 140.975H931.423L890.602 26.0767L890.131 24.7505L889.659 26.0767L848.839 140.975H822.592L871.336 3.82666H908.926Z" stroke="#EAECF0"/>
</g>
<defs>
<clipPath id="clip0_5972_13543">
<rect width="1542" height="144" fill="white"/>
</clipPath>
</defs>
</svg>
