<?xml version="1.0" encoding="utf-8"?>
<svg xmlns="http://www.w3.org/2000/svg" fill="none" height="100%" overflow="visible" preserveAspectRatio="none" style="display: block;" viewBox="0 0 109.427 72.4238" width="100%">
<g id="Frame 58">
<g id="  ">
<path clip-rule="evenodd" d="M73.4746 28.7068C74.8296 28.7068 75.9268 27.6264 75.9268 26.2954C75.9268 24.9644 74.8296 23.884 73.4746 23.884C72.1196 23.884 71.0195 24.9673 71.0195 26.2954C71.0195 27.6236 72.1224 28.7068 73.4746 28.7068Z" fill="var(--fill-0, #8DC63F)" fill-rule="evenodd" id="Vector"/>
<path clip-rule="evenodd" d="M81.2724 33.5095C81.7909 34.2816 82.2893 35.0192 82.6933 35.6299C84.8475 36.6642 86.3458 38.8711 86.3458 41.4294C86.3458 44.976 83.4782 47.8628 79.9489 47.8628C76.4195 47.8628 73.5519 44.976 73.5519 41.4294C73.5519 41.2969 73.5634 41.1615 73.5749 41.0347H73.2368C73.1709 41.1413 72.6897 41.9221 72.0938 42.8988C72.7785 46.6326 76.0385 49.4704 79.9489 49.4704C84.3577 49.4704 87.9414 45.8633 87.9414 41.4294C87.9414 37.4507 85.0538 34.1462 81.2724 33.5095Z" fill="var(--fill-0, #8DC63F)" fill-rule="evenodd" id="Vector_2"/>
<path clip-rule="evenodd" d="M69.2606 46.8746L73.0449 40.6919H81.2409C82.1862 40.6919 84.5124 39.0641 83.3292 37.2001C83.3292 37.2001 78.167 29.43 77.7344 28.9949C77.299 28.5628 75.9583 28.1594 74.7752 28.9546C73.847 29.5798 71.9019 33.9849 71.9019 33.9849C71.9019 33.9849 69.696 34.0281 69.0199 33.9849C68.3553 33.9474 68.1548 36.2465 68.9827 36.2465H73.0019L74.5002 33.6334L77.6141 38.4274H71.2688L66.3042 46.8746C66.0235 47.3874 66.0664 48.1336 67.0433 48.1336C68.0202 48.1336 68.6046 47.7072 69.2606 46.8746Z" fill="var(--fill-0, #8DC63F)" fill-rule="evenodd" id="Vector_3"/>
<path d="M73.4345 35.0134H66.2899V37.0071H73.4345V35.0134Z" fill="var(--fill-0, #8DC63F)" id="Vector_4"/>
<path clip-rule="evenodd" d="M67.0834 35.12L66.3128 35.6645L62.1532 29.6893L62.9267 29.1419L67.0834 35.12Z" fill="var(--fill-0, #8DC63F)" fill-rule="evenodd" id="Vector_5"/>
<path clip-rule="evenodd" d="M32.8872 54.7715C39.181 57.1541 46.9186 58.5456 55.1747 58.5456C76.9438 58.5456 94.6134 48.9057 94.6134 36.9437C94.6134 30.8445 89.0128 22.89 74.7494 22.89C64.4135 22.89 55.4039 27.4766 55.4039 33.1119C55.4039 34.0972 55.9797 35.2035 56.7332 35.9584C57.8876 37.2952 58.2343 38.9201 58.2343 40.4297C58.2343 47.3413 48.0129 52.9161 35.4254 52.9161C27.1091 52.9161 19.4889 50.594 15.7333 46.8198C12.731 43.8005 11.7484 40.375 11.7484 36.9466C11.7484 23.763 31.2085 13.0773 55.1719 13.0773C79.1353 13.0773 98.6526 23.763 98.6526 36.9466C98.6526 50.1301 79.1926 60.813 55.1719 60.813C45.7011 60.813 36.9265 59.1276 29.822 56.3416L32.8843 54.7715H32.8872Z" fill="var(--fill-0, #88BF43)" fill-rule="evenodd" id="Vector_6"/>
<path clip-rule="evenodd" d="M32.6007 52.8181C38.8945 55.2007 46.6321 56.5923 54.8883 56.5923C76.6573 56.5923 94.3269 46.9524 94.3269 34.9903C94.3269 28.8912 88.7264 20.9367 74.4629 20.9367C64.127 20.9367 55.1175 25.5233 55.1175 31.1586C55.1175 32.1439 55.6933 33.2502 56.4467 34.005C57.6012 35.3418 57.9478 36.9667 57.9478 38.4764C57.9478 45.388 47.7265 50.9628 35.1389 50.9628C26.8226 50.9628 19.2024 48.6406 15.4468 44.8665C12.4446 41.8472 11.462 38.4188 11.462 34.9932C11.462 21.8096 30.922 11.1239 54.8854 11.1239C78.8488 11.1239 98.3662 21.8096 98.3662 34.9932C98.3662 48.1768 78.9061 58.8596 54.8854 58.8596C45.4146 58.8596 36.64 57.1742 29.5355 54.3883L32.5979 52.821L32.6007 52.8181Z" fill="var(--fill-0, #378840)" fill-rule="evenodd" id="Vector_7"/>
<g id="Group">
<path clip-rule="evenodd" d="M33.7638 43.2646H30.1686L29.6587 31.3891L22.0414 43.2646H18.4404L18.4089 23.6881H22.9037L22.6201 36.0333L30.3491 23.6881H33.5776L33.9128 36.0333L41.0517 23.6881H45.5493L33.7638 43.2646Z" fill="var(--fill-0, white)" fill-rule="evenodd" id="Vector_8"/>
<path clip-rule="evenodd" d="M48.4885 43.4231L48.5544 39.9486H43.12L41.215 43.4231H36.004L47.7379 23.7976H52.8801L53.7051 43.4231H48.4914H48.4885ZM48.8208 29.5798L44.8131 36.7218H48.7349L48.8179 29.5798H48.8208Z" fill="var(--fill-0, white)" fill-rule="evenodd" id="Vector_9"/>
</g>
<path d="M54.7135 71.4238C84.3787 71.4238 108.427 55.6589 108.427 36.2119C108.427 16.7649 84.3787 1 54.7135 1C25.0484 1 1 16.7649 1 36.2119C1 55.6589 25.0484 71.4238 54.7135 71.4238Z" id="Vector_10" stroke="var(--stroke-0, #88BF43)" stroke-width="2"/>
<g id="Group_2">
<path d="M14.8309 50.2713L15.908 51.0607C15.2434 52.5675 14.7764 53.6191 14.5072 54.2154C14.321 54.6245 14.1376 55.0135 13.96 55.3851L13.9715 55.3938L14.1634 55.195C14.4814 54.8809 14.7994 54.5727 15.1173 54.2644C15.676 53.7314 16.4323 53.0256 17.3805 52.1411L18.4376 52.9161C17.7558 54.4315 17.2859 55.4629 17.0281 56.0161C16.8505 56.405 16.6586 56.8055 16.4523 57.2117L16.4781 57.229C16.7159 56.987 17.0138 56.7046 17.3719 56.382C17.8818 55.9181 18.7527 55.1374 19.9845 54.0454L21.0158 54.8003L15.9453 58.9029L14.9712 58.1884C15.6273 56.7392 16.0684 55.7712 16.2947 55.29C16.544 54.7571 16.8161 54.2097 17.1141 53.6479L17.1083 53.6421C16.6356 54.1146 16.2117 54.5295 15.8335 54.8809C15.4153 55.2699 14.6189 55.9988 13.4443 57.0705L12.5019 56.3791L14.8309 50.2684V50.2713Z" fill="var(--fill-0, black)" id="Vector_11"/>
<path d="M24.9577 58.0184L22.1588 56.5318L21.5515 57.6871L24.1154 59.0469L23.6141 60.0005L21.0502 58.6407L20.3054 60.061L23.2216 61.6081L22.7175 62.5704L18.7126 60.4442L21.5802 54.9818L25.4676 57.0446L24.9605 58.0126L24.9577 58.0184Z" fill="var(--fill-0, #444444)" id="Vector_12"/>
<path d="M26.3929 57.4796L29.186 58.6003C29.7876 58.8424 30.1686 59.191 30.329 59.6519C30.4551 60.0005 30.4436 60.3635 30.2946 60.741C30.1514 61.1011 29.9537 61.3546 29.6988 61.5015C29.5613 61.5822 29.3751 61.6341 29.1459 61.6629V61.6715C29.4094 61.9078 29.5613 62.1872 29.6042 62.5099C29.6415 62.7721 29.5928 63.0688 29.4639 63.3944C29.3751 63.6191 29.2404 63.8208 29.0657 63.9965C28.9024 64.1694 28.7162 64.2961 28.5071 64.3826C28.255 64.492 28.0172 64.5381 27.7909 64.5266C27.4872 64.5122 27.0776 64.4027 26.5648 64.1953L24.1212 63.2158L26.3958 57.4796H26.3929ZM25.628 62.6856L27.1263 63.2878C27.4185 63.403 27.662 63.4232 27.8625 63.3454C28.0745 63.2647 28.2378 63.0803 28.3524 62.7865C28.444 62.556 28.4268 62.3428 28.3008 62.1469C28.1948 61.9856 28.0286 61.8588 27.8023 61.7695L26.2382 61.1414L25.6251 62.6856H25.628ZM26.6192 60.182L28.0659 60.764C28.3037 60.8591 28.5128 60.885 28.6933 60.8389C28.8967 60.7899 29.0428 60.6632 29.1258 60.4528C29.2175 60.2195 29.2089 60.0236 29.0972 59.8651C28.9998 59.724 28.8136 59.5972 28.53 59.4848L27.1177 58.9201L26.6163 60.1849L26.6192 60.182Z" fill="var(--fill-0, #444444)" id="Vector_13"/>
<path d="M33.8927 66.6413L32.6151 66.3244L36.1874 60.8475L37.5882 61.1933L38.1984 67.7044L36.8892 67.3817L36.8033 66.0478L34.606 65.5033L33.8927 66.6413ZM35.1933 64.5525L36.7059 64.9271L36.5483 62.3716L36.5254 62.3658L35.1933 64.5525Z" fill="var(--fill-0, black)" id="Vector_14"/>
<path d="M43.9508 64.4575C43.9193 64.1492 43.8534 63.913 43.7502 63.7487C43.5669 63.4549 43.2604 63.2734 42.8278 63.2071C42.4411 63.1466 42.0973 63.233 41.7994 63.4606C41.404 63.7718 41.1462 64.3077 41.0288 65.0711C40.9371 65.6617 40.9772 66.1602 41.1491 66.5635C41.3439 67.0245 41.6905 67.2924 42.189 67.3702C42.5299 67.422 42.8221 67.3702 43.0713 67.2031C43.3234 67.0389 43.5182 66.7767 43.6528 66.4166L44.899 66.6096C44.6526 67.2838 44.2945 67.7822 43.8219 68.1077C43.3062 68.465 42.696 68.586 41.9913 68.4765C41.1749 68.3497 40.5704 67.9781 40.1722 67.3587C39.754 66.7104 39.6222 65.8721 39.7797 64.8493C39.9344 63.8381 40.3183 63.0861 40.9256 62.5963C41.4986 62.1325 42.1832 61.9625 42.9768 62.0864C43.776 62.2103 44.3747 62.556 44.7758 63.1236C45.0967 63.5874 45.237 64.0945 45.1998 64.6476L43.9536 64.4546L43.9508 64.4575Z" fill="var(--fill-0, #444444)" id="Vector_15"/>
<path d="M50.2073 65.0423C50.15 64.7369 50.0641 64.5093 49.9495 64.3538C49.7432 64.0772 49.4224 63.9216 48.9841 63.8899C48.5945 63.8611 48.2593 63.9763 47.9786 64.2299C47.609 64.5727 47.397 65.1288 47.3426 65.898C47.2996 66.4944 47.3827 66.987 47.5832 67.376C47.8153 67.8196 48.182 68.0588 48.6862 68.0933C49.0299 68.1164 49.3193 68.0386 49.5513 67.8542C49.7891 67.6698 49.961 67.3932 50.0641 67.0216L51.3217 67.1109C51.1326 67.8023 50.8146 68.3296 50.3706 68.6955C49.8865 69.093 49.2877 69.2659 48.5744 69.2169C47.7523 69.1593 47.1163 68.8366 46.6723 68.2518C46.2024 67.6381 46.0019 66.817 46.0764 65.7856C46.148 64.7629 46.466 63.985 47.0332 63.4462C47.5661 62.9363 48.2335 62.7116 49.0357 62.7663C49.8435 62.8239 50.468 63.1178 50.912 63.6508C51.2701 64.0858 51.4506 64.5814 51.4592 65.1345L50.2016 65.0452L50.2073 65.0423Z" fill="var(--fill-0, #444444)" id="Vector_16"/>
<path d="M57.0282 64.1607L53.8627 64.1953L53.877 65.5033L56.7761 65.4716L56.7876 66.552L53.8885 66.5837L53.9057 68.1913L57.203 68.1567L57.2144 69.2429L52.6882 69.2918L52.6223 63.1149L57.0168 63.0688L57.0282 64.1636V64.1607Z" fill="var(--fill-0, #444444)" id="Vector_17"/>
<path d="M59.4317 67.2175C59.4575 67.4624 59.5463 67.6583 59.6981 67.8052C59.9302 68.0299 60.2911 68.1221 60.781 68.0818C61.1305 68.053 61.4055 67.981 61.606 67.8657C61.8667 67.713 61.9842 67.4941 61.9641 67.206C61.9469 66.987 61.8324 66.8228 61.6204 66.7191C61.4685 66.6471 61.205 66.5866 60.8268 66.5376L60.1737 66.4223C59.8442 66.3705 59.6036 66.3244 59.4489 66.2898C59.1968 66.2264 58.9906 66.1458 58.8244 66.0478C58.621 65.9268 58.4635 65.7712 58.3546 65.5782C58.2314 65.3621 58.1598 65.0942 58.134 64.7744C58.091 64.3048 58.197 63.8928 58.4549 63.5413C58.8129 63.0487 59.4203 62.7692 60.274 62.7029C61.0818 62.6395 61.712 62.8297 62.1647 63.2734C62.5056 63.6047 62.7004 64.0167 62.7491 64.5065L61.5688 64.5986C61.5201 64.3653 61.4313 64.1867 61.3053 64.0599C61.0789 63.8409 60.7323 63.7487 60.2625 63.7862C59.9875 63.8092 59.7583 63.8784 59.5807 63.9994C59.363 64.1492 59.2627 64.348 59.2828 64.5986C59.2971 64.7974 59.3802 64.9444 59.5291 65.0366C59.6179 65.0942 59.7583 65.1403 59.9474 65.1777L59.9646 65.1835L61.4542 65.4457C61.9469 65.5235 62.3194 65.6502 62.5686 65.8317C62.9124 66.0795 63.1043 66.4569 63.1444 66.9726C63.2046 67.7534 62.921 68.3382 62.2936 68.73C61.9097 68.972 61.4628 69.1132 60.9529 69.1535C59.9903 69.2285 59.2713 69.0354 58.8015 68.5745C58.4663 68.2489 58.2801 67.8283 58.24 67.3155L59.4346 67.2204L59.4317 67.2175Z" fill="var(--fill-0, #444444)" id="Vector_18"/>
<path d="M65.5393 66.5952C65.5823 66.8372 65.6854 67.0273 65.8516 67.1599C66.1008 67.3644 66.4675 67.4278 66.9516 67.35C67.2983 67.2953 67.5647 67.2031 67.7566 67.0706C68.003 66.8977 68.1061 66.6701 68.0603 66.3849C68.0259 66.1659 67.8998 66.0132 67.6793 65.9268C67.5217 65.8663 67.2524 65.826 66.8743 65.8087L66.2154 65.7453C65.8831 65.7194 65.6396 65.6934 65.482 65.6704C65.2271 65.6272 65.0122 65.5609 64.8403 65.4774C64.6283 65.3736 64.4593 65.2296 64.3361 65.0481C64.1986 64.8406 64.1041 64.5814 64.0525 64.2644C63.9723 63.7977 64.0468 63.38 64.2731 63.0083C64.594 62.4897 65.1755 62.1613 66.0206 62.0259C66.8198 61.8991 67.4644 62.0374 67.9514 62.4436C68.3152 62.7461 68.5415 63.1408 68.6303 63.6277L67.4615 63.815C67.3928 63.5874 67.2925 63.4145 67.1579 63.2964C66.9144 63.0947 66.562 63.0342 66.0979 63.1063C65.8258 63.1495 65.6023 63.2388 65.4333 63.3713C65.2271 63.5384 65.144 63.7459 65.1841 63.9936C65.2156 64.1895 65.3073 64.3307 65.4648 64.4114C65.5565 64.4604 65.6997 64.4949 65.8945 64.518L65.9117 64.5237L67.4186 64.6649C67.917 64.7024 68.298 64.8003 68.5587 64.9617C68.9225 65.1806 69.1431 65.5436 69.2233 66.0536C69.3465 66.8257 69.1088 67.4336 68.51 67.8744C68.1462 68.1452 67.7108 68.3209 67.2066 68.4016C66.2526 68.5543 65.5221 68.4189 65.0151 67.9925C64.657 67.6929 64.4364 67.2895 64.3562 66.7825L65.5393 66.5923V66.5952Z" fill="var(--fill-0, #444444)" id="Vector_19"/>
<path d="M72.3573 67.2405L71.1341 67.5142L69.7963 61.4871L71.0195 61.2134L72.3573 67.2405Z" fill="var(--fill-0, #444444)" id="Vector_20"/>
<path d="M72.4404 60.908L75.3252 60.0524C75.9468 59.868 76.4596 59.9054 76.8693 60.1676C77.1815 60.3635 77.3964 60.6574 77.511 61.0435C77.6198 61.4151 77.6198 61.7407 77.511 62.0144C77.4508 62.1642 77.3391 62.3198 77.1758 62.484V62.4926C77.5339 62.5128 77.8261 62.6367 78.0553 62.8643C78.2444 63.0486 78.3905 63.3108 78.4907 63.6479C78.5595 63.8784 78.5767 64.1204 78.548 64.371C78.5251 64.6073 78.4592 64.8262 78.3475 65.0222C78.2157 65.2642 78.0581 65.4514 77.8748 65.5811C77.6284 65.7597 77.2388 65.9268 76.706 66.0853L74.1822 66.8343L72.4404 60.9109V60.908ZM74.2824 62.8902L75.7778 62.4465C76.0242 62.3745 76.2018 62.2621 76.3164 62.1123C76.4482 61.9481 76.4825 61.758 76.4167 61.539C76.345 61.297 76.2161 61.1501 76.0328 61.0953C75.8695 61.0463 75.6432 61.0636 75.3538 61.1501L73.8957 61.5822L74.2796 62.8902H74.2824ZM75.0416 65.4745L76.5885 65.0135C76.8893 64.9242 77.0927 64.7859 77.2016 64.6015C77.319 64.4085 77.3334 64.1607 77.2446 63.8582C77.1758 63.622 77.0297 63.4635 76.812 63.3886C76.6315 63.3281 76.4224 63.331 76.1875 63.403L74.5718 63.8841L75.0387 65.4774L75.0416 65.4745Z" fill="var(--fill-0, #444444)" id="Vector_21"/>
<path d="M81.7536 64.3451L80.582 64.7888L78.4191 59.0095L79.5908 58.5658L81.7536 64.3451Z" fill="var(--fill-0, #444444)" id="Vector_22"/>
<path d="M84.1571 62.1325L86.8471 60.8908L87.3112 61.9078L83.4811 63.6767L80.9171 58.0645L82.0573 57.5373L84.1571 62.1325Z" fill="var(--fill-0, #444444)" id="Vector_23"/>
<path d="M89.7577 60.5335L88.6633 61.1472L85.6754 55.751L86.7698 55.1374L89.7577 60.5335Z" fill="var(--fill-0, #444444)" id="Vector_24"/>
<path d="M93.6881 58.0299L92.6539 58.7386L89.8064 54.541L88.2795 55.5897L87.6664 54.685L91.7572 51.8789L92.3703 52.7836L90.8434 53.8323L93.6909 58.0299H93.6881Z" fill="var(--fill-0, #444444)" id="Vector_25"/>
<path d="M98.6584 53.9648L97.7359 54.8176L96.1689 53.1005L92.0208 51.7089L93.1065 50.7092L95.8738 51.8213L94.9228 49.0325L95.9627 48.0731L97.1057 52.265L98.6555 53.9648H98.6584Z" fill="var(--fill-0, #444444)" id="Vector_26"/>
</g>
<g id="Group_3">
<path d="M20.2939 15.4195C19.8957 14.4198 19.5061 13.7168 19.1652 13.1435L16.7875 14.5754L16.352 13.8436L19.6264 11.873L19.9387 12.3945C20.3082 13.0139 20.7723 13.7946 21.2307 14.9586L20.2939 15.4195ZM20.2738 16.5201C20.8754 16.1283 21.4742 15.7134 22.0127 15.2928L22.4539 15.9266C21.2937 16.9263 19.8871 17.8108 18.7842 18.4849L18.2542 17.782C18.6066 17.5688 18.9933 17.3383 19.3915 17.0876L18.2628 15.1919L19.1623 14.6503L20.2738 16.5201ZM23.5568 13.1896L22.7003 13.7053L24.5251 16.7736L23.6141 17.3239L19.7926 10.9021L20.7036 10.3518L22.2419 12.939L23.0985 12.4233L23.554 13.1896H23.5568Z" fill="var(--fill-0, #388840)" id="Vector_27"/>
<path d="M28.7162 8.48202L24.6397 10.0579L24.3389 9.26854L25.8715 8.67505L25.6223 8.02394L26.6221 7.63788L26.8713 8.289L28.4125 7.69262L28.7133 8.48202H28.7162ZM27.745 12.0603C26.7538 12.4434 25.8457 12.1928 25.5535 11.4293C25.2642 10.6716 25.7712 9.87356 26.7624 9.49038C27.7622 9.10433 28.6618 9.35786 28.9511 10.1156C29.2433 10.8819 28.7448 11.6742 27.745 12.0603ZM27.4557 11.3025C27.8997 11.1297 28.1404 10.8387 28.0057 10.4815C27.8711 10.1329 27.4987 10.0781 27.0546 10.2481C26.6049 10.4238 26.37 10.7119 26.5017 11.0605C26.6393 11.4178 27.0059 11.4754 27.4557 11.2997V11.3025ZM26.7223 12.9966L31.3374 11.2132L32.2283 13.5411L31.2371 13.9243L30.6556 12.4002L27.0317 13.8004L26.7252 12.9966H26.7223ZM31.4778 8.8191L30.5611 9.17347L31.2314 10.9251L30.2402 11.3083L28.5672 6.93203L29.5584 6.54886L30.2459 8.34662L31.1627 7.99225L31.4778 8.8191Z" fill="var(--fill-0, #388840)" id="Vector_28"/>
<path d="M37.0095 5.2812C37.5309 7.51112 37.2129 9.50767 34.9412 11.3631L34.2079 10.6687C35.8407 9.34057 36.3736 8.01242 36.1444 6.36159L33.738 6.93203L33.5432 6.1023L37.0067 5.2812H37.0095ZM38.9805 4.01355L40.6821 11.2968L39.6394 11.5446L37.9377 4.26132L38.9805 4.01355Z" fill="var(--fill-0, #388840)" id="Vector_29"/>
<path d="M46.3571 6.76781L46.4116 7.24318L48.4111 7.0127L48.6317 8.94299L44.5982 9.40683L44.6469 9.82746L48.8724 9.34345L48.964 10.1415L43.6901 10.7465L43.4666 8.79317L47.5088 8.32933L47.4629 7.92599L43.4122 8.38983L43.3234 7.59755L45.3573 7.36419L45.3029 6.88882L42.5098 7.20861L42.4153 6.37023L49.0758 5.60676L49.1703 6.44514L46.36 6.76781H46.3571ZM48.3567 5.37628C47.0676 5.38492 46.1022 5.00463 45.5607 4.38232C45.174 5.1141 44.3089 5.70471 43.0512 5.98706L42.6158 5.22646C44.2544 4.87498 44.9677 4.03372 44.8875 3.31346L44.8732 3.17517L45.9618 3.05129L45.9761 3.18958C46.0592 3.90696 46.9444 4.56671 48.6174 4.5379L48.3567 5.37628Z" fill="var(--fill-0, #388840)" id="Vector_30"/>
<path d="M55.2865 6.76205C54.4786 6.50276 53.9171 5.97841 53.5906 5.32442C53.2754 6.08213 52.6939 6.69867 51.8345 6.9983L51.2873 6.15992C52.459 5.73353 52.989 4.77991 53.0148 3.84357L51.5566 3.85798L51.548 2.99655L55.5328 2.9591L55.5414 3.82052L54.1005 3.83493C54.1406 4.68771 54.6648 5.56066 55.7935 5.92367L55.2865 6.76493V6.76205ZM57.5811 8.54541C57.5897 9.45581 56.6272 9.99168 55.0573 10.0061C53.4788 10.0205 52.5077 9.50191 52.4991 8.5915C52.4905 7.6811 53.4531 7.14523 55.0315 7.13082C56.6014 7.11642 57.5725 7.635 57.5811 8.54541ZM56.5183 8.55405C56.5154 8.13054 56.0055 7.93175 55.0401 7.94327C54.0661 7.95191 53.5619 8.15935 53.5648 8.58286C53.5676 9.00637 54.0776 9.20228 55.0516 9.19364C56.017 9.18499 56.524 8.97756 56.5183 8.55405ZM56.4467 4.30454L56.4295 2.50101L57.4923 2.49237L57.5324 6.94356L56.4696 6.9522L56.4524 5.17172L55.3409 5.18325L55.3323 4.31318L56.4438 4.30166L56.4467 4.30454Z" fill="var(--fill-0, #388840)" id="Vector_31"/>
<path d="M66.6852 9.00925L66.5993 9.87356L59.9159 9.19652L60.0018 8.33221L62.8064 8.61743L62.9439 7.25183L60.844 7.03863L61.2365 3.14925L62.285 3.25584L62.1675 4.41113L65.3245 4.73093L65.4419 3.57564L66.4847 3.68224L66.0922 7.57162L64.001 7.35842L63.8635 8.72403L66.6852 9.00925ZM61.9813 6.29533L65.1383 6.61512L65.2442 5.57219L62.0873 5.25239L61.9813 6.29533Z" fill="var(--fill-0, #388840)" id="Vector_32"/>
<path d="M75.5458 8.91706L75.3682 9.73527L68.8165 8.28611L68.9942 7.4679L71.7472 8.07868L71.8474 7.62636L69.9137 7.19709L70.5984 4.07117L75.583 5.17461L75.4083 5.96689L71.4521 5.09106L71.369 5.47135L75.159 6.30973L74.9929 7.07032L71.2029 6.23194L71.1169 6.62952L75.1275 7.51688L74.9528 8.30916L72.8845 7.85108L72.7842 8.3034L75.5458 8.91418V8.91706ZM74.2624 11.0865C74.0934 11.8643 73.0793 12.0804 71.4836 11.7289C69.8937 11.3775 69.0658 10.7523 69.2377 9.9744C69.4095 9.18788 70.4208 8.98044 72.0078 9.33193C73.6035 9.68629 74.4343 10.3028 74.2624 11.0865ZM73.2168 10.856C73.2826 10.5535 72.8472 10.3259 71.8388 10.1012C70.839 9.87932 70.3492 9.90525 70.2833 10.2049C70.2174 10.5074 70.6528 10.7436 71.6498 10.9655C72.6553 11.1873 73.1509 11.1556 73.2168 10.856Z" fill="var(--fill-0, #388840)" id="Vector_33"/>
<path d="M82.7305 14.1893L82.4383 14.9903L77.6256 13.2242L78.4477 10.9568L79.4475 11.3227L78.9147 12.7892L82.7276 14.1893H82.7305ZM81.2695 11.3429C80.5934 10.7926 80.2525 10.0781 80.1895 9.31176C79.6137 9.90525 78.8603 10.2769 77.9493 10.2625L77.7344 9.27431C79.035 9.30312 79.8944 8.50219 80.2325 7.57162L80.4817 6.88594L81.4958 7.25759L81.2466 7.94327C80.9114 8.86808 81.069 9.94558 82.0716 10.7292L81.2724 11.3458L81.2695 11.3429ZM82.911 13.1493L81.9055 12.7805L83.7647 7.66093L84.7702 8.0297L82.911 13.1493Z" fill="var(--fill-0, #388840)" id="Vector_34"/>
<path d="M91.233 17.2202L88.755 15.8027L87.6091 17.831L86.6838 17.3037L87.8297 15.2755L85.3918 13.8839L85.8101 13.1435L91.6512 16.4798L91.233 17.2202ZM91.3046 15.4685L86.8242 12.9073L88.4513 10.0263L89.3681 10.5506L88.9498 11.291L91.6025 12.8064L92.0208 12.066L92.9318 12.5846L91.3046 15.4656V15.4685ZM91.1929 13.5353L88.5402 12.0199L88.162 12.6912L90.8147 14.2066L91.1929 13.5353Z" fill="var(--fill-0, #388840)" id="Vector_35"/>
</g>
</g>
</g>
</svg>